<svg version="1.0" xmlns="http://www.w3.org/2000/svg" width="280pt" height="416pt" viewBox="0 0 280 416"><g transform="translate(0.000000,416.000000) scale(0.100000,-0.100000)" fill="#000" stroke="none"><path d="M746 4113c30-224 42-237 191-187 88 29 110 45 129 91 8 18 25 40 39 49 29 19 32 32 8 41-10 3-25 12-33 18-20 17-79 25-222 31l-118 6 6-49z"/><path d="M1503 4153c-44-6-41-17 7-33 51-17 64-31 47-54-11-16-19-16-53-7-56 16-109 14-124-4-11-13-11-27-1-71 15-64 30-74 99-64 54 9 82 3 82-16 0-8 4-14 8-14 5 0 28-13 53-29 30-19 68-32 119-40 74-12 144-40 178-71 45-42 131-1e2 148-101 11 0 14-3 6-6-10-4-9-8 4-18 10-7 19-24 21-39 4-30 0-32-19-12-105 113-155 156-187 162-20 4-40 10-46 14-5 5-19 10-30 13-11 2-4 3 15 2l35-3-35 15c-59 25-98 27-157 7-44-15-59-26-69-49-10-23-13-25-13-10-1 27 8 39 48 63 28 17 30 21 15 26-11 3-39 4-63 2-49-3-75-27-110-101-16-31-18-49-12-82 7-36 6-43-8-44-9-1-23-2-31-3-8 0-18 3-21 7-8 11-40-3-33-14 3-5 30-9 61-9 45 0 54-3 49-15-6-17 19-21 29-5 3 6 25 10 48 10 35 0 45 5 59 28 17 26 17 26 18 4 0-12 8-25 18-29 9-3 28-18 42-33 14-15 37-30 51-33 54-13 149-135 149-191 0-12 6-33 14-48l14-26-47-7c-109-15-111-16-131-56-24-46-25-53-5-45 9 3 15 0 15-9 0-9 6-12 15-9 8 4 12 10 9 15-7 13 3 11 26-3 16-10 24-10 40 0 13 8 19 9 18 1-2-6 7-15 20-20 13-5 22-5 22 1 0 6 7 10 15 10 12 0 15-13 15-59 0-69-10-101-41-130-32-29-50-26-89 14-37 39-52 44-48 18 2-15-4-18-34-18-20 0-40-3-44-7-11-12-42-10-46 3-2 6-17 9-33 7l-30-4 27-11c14-7 29-17 33-22 9-16 62-13 101 5 39 18 67 12 62-13-3-16-15-18-83-17-95 1-196 13-211 26-8 6 0 21 27 48 47 48 40 51-21 10-25-16-53-30-62-30-10 0-18-4-18-10 0-5 4-10 9-10 5 0 34-21 65-46 31-26 59-44 63-40 3 3 2 6-4 6-16 0-26 32-12 40 6 4 32 1 57-6 25-8 62-14 84-14 26 0 38-4 38-14 0-18-62-40-90-32-11 3-30 8-42 11-22 5-21 5 2-9 29-18 87-20 127-6 26 9 27 9 8-5-35-28-83-35-127-19-50 17-53 17-39 1 34-41 151-39 181 3 32 46 66 79 88 85 57 16 3-97-84-174-60-53-87-64-135-56l-36 6 7-46c5-36 4-48-7-52-21-8-85 13-110 37-12 11-27 20-32 20-16 0-29 33-22 54 7 18 10 17 39-14 33-34 59-35 29-2-10 10-17 30-17 45 0 17-16 42-48 76-26 27-57 67-68 88-13 24-27 38-39 38-24 0-32 30-14 51 7 9 14 37 14 62 4 1e2 17 199 35 252 10 30 22 73 26 94 4 22 17 66 30 98 22 57 22 58 3 58-12 0-17 4-13 11 3 6 15 9 25 6 11-3 17-1 13 4-3 5 4 9 16 9 12 0 18 5 15 10-8 13-122 13-130-1-4-6-13-8-20-5-11 4-29-18-22-28 1-1-5-11-13-22-14-19-14-19 7 0 13 10 20 23 17 27-3 5 2 6 10 3 9-3 12-12 8-22-5-15-4-16 14-2 18 14 18 14 4-4-14-18-13-19 3-13 24 9 21 0-4-14-15-8-19-8-15 0 11 18-20 13-35-6-12-14-12-16 0-8 8 5 5-6-8-23-12-18-26-32-30-32-10 0-57-1e2-53-115 1-6-7-21-18-33-12-12-18-22-15-22 9 0-28-43-80-93-27-26-50-52-50-57 0-5-16-19-35-32-29-20-35-30-35-60 0-20-8-44-17-55-10-11-18-25-18-32 0-8-7-10-20-6-27 9-25-9 4-38l25-25-37-27-37-27 30 5c17 3 38 9 48 13 14 5 11-1-8-21-23-22-25-29-14-36 12-7 12-9 0-9-7 0-21-8-30-18-21-24-94-73-99-67-2 2 10 22 28 45 17 22 29 40 25 40-4 0-2 7 5 15 18 22-7 20-56-4-32-16-40-17-42-5-4 18-62 19-62 2 0-7 7-26 15-42 8-15 15-42 15-60 0-23 3-27 10-16 5 8 12 12 15 8 8-8 8-30-2-103-7-55-11-62-45-84-21-13-38-30-38-38 0-24 38-14 63 17l26 30 7-58c9-67 9-93 2-227-5-96-4-101 23-143 15-24 30-38 34-32 4 6 14 2 27-12 18-21 19-21 12-3-14 38-51 170-57 202-4 22-2 37 9 47 42 43 176 45 325 5 46-12 86-23 87-25 2-1 14-42 27-91 22-85 71-221 133-368 21-51 34-69 46-67 9 2 16-2 16-8 0-5-4-10-10-10-13 0-13-36 0-61 6-10 16-19 22-19 8 0 9 3 1 11-13 13-5 55 15 71 13 11 15 10 10-9-4-13-2-26 3-29 5-3 9-14 9-25 0-11-4-17-10-14-5 3-10 2-10-3 0-11 30-25 38-18 2 3 5 17 5 31 0 18 4 25 15 23 20-4 24-48 4-48-19 0-11-83 11-108 8-9 12-23 10-30-3-7 1-10 10-7 7 3 19-1 26-9 10-11 8-17-11-30l-22-16h25c14 0 34 9 44 20 10 11 13 20 7 20-16 0-4 27 15 34 12 5 13 3 7-7-5-7 1-2 12 11 25 28 124 50 264 57 88 4 154 21 145 35-3 5 0 12 6 16 8 4 9 3 5-4-22-35 50 9 87 54 41 49 46 73 46 226 0 133-11 225-27 238-4 3-16 15-26 28-17 19-17 22-3 16 9-3 17-10 17-15 0-22 25-6 26 17 1 14 10 35 20 46 13 14 14 18 4 13-13-8-13-6-2 8 8 9 11 21 7 27-12 20 13 10 39-16 31-32 36-20 5 12l-21 22 28 36 29 35 13-22c12-20 13-20 9-2-3 11-8 27-11 36-5 10 3 28 21 49 18 22 24 35 15 38-7 2-9 8-6 14 4 7 9 6 14-1 11-19 60 86 60 128 0 26-9 50-31 79-17 23-35 42-40 42-4 0-6 6-3 14 4 11 0 13-15 9-12-3-21-1-21 6 0 6 5 11 11 11 8 0 8 4 0 14-6 7-13 54-15 105-4 99-10 113-63 138-21 10-33 22-31 32 2 9-4 23-13 31-30 27-31 54-4 84 18 20 31 26 48 21 19-5 19-4 5 5-9 6-15 16-12 24 7 19-13 63-34 75-28 15-24-17 5-36 25-17 30-33 10-33-21 0-71 57-55 62 11 4 11 8 0 20-7 9-12 20-11 24 2 5-2 34-9 64-6 30-12 78-14 105-2 30-10 58-20 69-19 21-25 51-8 41 6-3 10-13 10-21 0-8 4-14 10-14 5 0 12-11 16-25 3-14 11-25 16-25 6 0 8-9 5-20-4-15 0-20 14-20 10 0 19-4 19-10 0-11 158-4 193 9 22 9 25 16 29 78 4 83 32 144 98 216 50 55 56 82 27 115-9 10-17 26-17 34 0 9-15 25-33 37-49 30-74 62-81 104-6 33-10 37-36 37-19 0-34-7-42-19-11-18-12-18-31 5-18 23-19 24-35 6-9-11-36-25-59-32-35-11-44-10-55 1-16 16-48 116-48 147 0 19-6 22-45 22-38 0-45-3-45-20 0-11-4-28-9-38-5-9-15-31-21-49-15-41-44-48-92-21-44 25-48 41-13 64 15 10 25 26 25 40 0 23-2 24-77 24h-78l34-21c33-20 34-21 28-75-3-31-10-61-15-67-5-7-13-31-17-55-5-33-12-43-31-48-29-7-50 8-59 43-3 14-20 42-36 63-25 31-30 45-27 81 3 39 7 46 38 61l35 18-85-2c-47 0-1e2-3-117-5zm667-213c37-37 36-68-4-109-26-27-36-46-36-69 0-27-4-32-22-32-20 0-26 11-47 80-22 75-23 81-7 104 13 21 52 41 89 45 4 1 16-8 27-19zm228-228c2-32-1-44-14-49-19-7-68 19-72 39-5 24 31 59 58 56 22-3 25-9 28-46zm-558-2c19-6 11-8-32-9-33-1-58 3-58 9 0 12 54 12 90 0zm-103-6c-3-3-12-4-19-1-8 3-5 6 6 6 11 1 17-2 13-5zm128-49c48-23 82-47 101-72 15-21 35-43 43-49 10-8 11-13 2-18-7-5-20 1-30 13-10 12-23 21-29 21-6 0-18 7-26 16-9 8-35 17-58 20-67 7-78 14-43 29l30 13-38 7c-20 4-48 5-62 3-14-3-22-1-19 4 4 5-4 8-16 6-13-2-25 3-27 10-3 8 6 12 26 12 16 0 33 5 36 10 10 17 35 11 110-25zm175-2e2c0-5-5-3-10 5-5 8-10 20-10 25 0 6 5 3 10-5 5-8 10-19 10-25zm-86-61c7-19 2-18-19 6-16 17-16 20-3 15 9-4 19-13 22-21zm151-4c3-5 1-10-4-10-6 0-11 5-11 10 0 6 2 10 4 10 3 0 8-4 11-10zm-180-199c9-16-14-24-83-27-69-4-74 7-12 24 46 13 87 14 95 3zm295-61c0-7-42-23-46-17 0 1-4 17-7 35l-7 33 30-21c17-12 30-25 30-30zm-970-65c0-14-4-25-9-25-4 0-6 11-3 25 2 14 6 25 8 25 2 0 4-11 4-25zm49-43c-1-33-2-34-9-12-12 36-12 62 0 55 6-3 10-23 9-43zm-199-32c0-12-42-51-48-45-9 9 21 55 35 55 7 0 13-4 13-10zm180-25c-7-8-16-13-20-10-5 3-12 0-16-6-4-8-9-7-15 2-15 24-10 29 27 29 31 0 35-2 24-15zm933-27c21-23 67-119 67-141 0-12-4-17-8-12-4 6-20 19-35 28-19 13-27 25-25 40 1 12 0 27-3 32-10 17-20 65-13 65 3 0 11-6 17-12zm-43-55c0-7-5-13-10-13-13 0-30 41-22 54 6 11 32-22 32-41zm130-3c0-11-2-20-4-20-2 0-6 9-9 20-3 11-1 20 4 20 5 0 9-9 9-20zm-1047-60c3-11 1-20-4-20-5 0-9 9-9 20 0 11 2 20 4 20 2 0 6-9 9-20zm-20-106c-3-8 0-14 6-14 6 0 11 5 11 10 0 6 5 10 10 10 7 0 7-6 0-19-15-29-12-39 5-17 8 11 15 18 16 15 6-42 6-59-2-59-5 0-9 5-9 12 0 6-3 9-6 6-3-4 2-18 12-33 14-22 24-26 50-23 26 3 35-1 48-23 9-15 32-41 52-58 50-45 41-66-26-58-85 10-105 27-124 103-9 36-33 98-53 137-33 67-34 70-10 48 14-13 23-29 20-37zm-404 4c-2-2-17-14-34-28l-30-25 24 28c14 15 29 27 34 27 6 0 8-1 6-2zm1296-232c8-44 19-83 26-87 16-10 25-114 10-123-6-4-11 0-11 9 0 12-4 14-19 5-17-9-20-7-19 18 1 16-10 43-23 61-19 26-21 34-10 41 24 14 8 139-24 192l-26 43 27-30 26-30-5 35c-12 74 34-52 48-134zm265 113c15-27 15-91 1-117-9-17-9-22 1-22 8 0 7-5-4-16-11-12-20-13-34-6-11 6-30 15-44 20-22 9-20 10 15 6 22-2 34-2 28 2-10 4-10 9 1 20 17 16 10 55-9 48-7-3-16 0-20 6-4 7 0 10 11 8 15-2 19 4 21 29 1 18-3 35-8 39-5 3-9 10-9 15 0 15 38-9 50-32zm-172-54c-3-3-9 2-12 12-6 14-5 15 5 6 7-7 10-15 7-18zm-169-98c0-21-1-21-9-2-12 28-12 37 0 30 6-3 10-16 9-28zm-482-54c-3-3-11-2-17 2-8 5-7 11 2 22 12 15 13 14 16-1 2-10 1-20-1-23zm468-39c-15-38-12-50 25-84 3-3 7-16 8-29 1-22-3-20-43 23-48 51-59 82-26 71 17-5 22 1 32 36 7 23 15 37 17 31 1-5-4-27-13-48zm-635-9c30-27 66-35 89-19 13 9 30 13 42 9 17-6 19-9 8-17-10-7-8-8 9-5 18 4 22 2 18-10-3-8-6-18-6-22 0-11-50-32-61-26-13 8-28-35-30-89-3-49-10-54-52-35-32 14-58 71-87 189-6 25-14 53-16 63-5 16-2 15 33-4 21-11 45-27 53-34zm940 47c0-17-26-43-59-60-44-22-56-47-15-32 37 14 38 9 6-29-28-33-62-36-62-4 0 13-3 13-16 2-15-12-16-10-11 21 3 19 10 49 15 65l10 30 1-30c2-45 17-63 25-30 5 21 11 25 29 20 22-6 22-5-1 11l-24 17 24 13c26 15 78 18 78 6zm-470-47c0-11 7-38 15-60 14-41 21-128 6-92-4 10-11 18-16 18-5 0-13-8-17-18-4-10-4 5-1 32 7 66 7 82-2 130-5 30-4 36 4 25 6-8 11-24 11-35zm-39-27c0-13 2-33 3-45 1-12-1-28-6-35-5-8-8 0-8 22 0 19-3 45-6 58-4 13-2 22 5 22 6 0 11-10 12-22zm-1044-90c-3-8-6-5-6 6-1 11 2 17 5 13 3-3 4-12 1-19zm1096-153c-3-9-8-14-10-11-3 3-2 9 2 15 9 16 15 13 8-4zm32-116c-2-13-6-44-9-69-9-63-16-81-28-74-6 4-8-2-4-17 3-13 3-18 0-11-9 20-24 3-24-27 0-16-6-34-14-40-16-13-28-51-16-51 11 0 24 17 56 75 36 66 41 76 50 1e2 6 18 8 16 17-12 20-67-13-137-82-173-29-14-41-16-50-7-8 8-11 7-11-5 0-9-11-18-27-21-36-7-43 0-9 9 14 3 26 10 26 15 0 6-9 5-21-1-11-7-22-10-24-8-1 2 4 24 13 51 18 56 7 1e2-19 76-50-47-56-50-54-32 0 10 9 33 18 52 9 18 14 37 11 42-3 5 0 8 8 7 7-2 12 3 10 10-1 7 5 15 13 18 8 4 15 12 15 19 0 6 9 20 20 30 20 18 21 18 14-1-7-17-6-17 9-6 8 8 14 19 11 27-3 7-1 16 4 19 12 7 7-30-12-83-9-24-13-48-9-54 3-5 1-7-4-4-6 4-14-5-17-19-8-32-1-41 19-24 13 11 14 10 9-5-5-12-4-16 3-12 19 12 53 96 46 113-5 13-3 15 7 9 9-5 11-4 6 3-4 6 0 22 8 34 8 13 17 43 21 68 6 37 9 41 16 24 4-12 6-32 4-45zm236-26c2-32-2-48-28-91-28-48-37-51-23-6 5 16 14 48 21 72 12 43 28 56 30 25zm48-132c17-11-7-77-34-95-25-16-25-16-47 28-20 42-21 47-5 64 9 10 24 36 33 57l17 40 13-44c7-24 17-47 23-50zm-89-112c0-5-7-9-15-9-9 0-15 9-15 21 0 18 2 19 15 9 8-7 15-16 15-21zm80-9c-5-16-15-39-23-50-14-20-15-20-19 15-3 27 1 38 16 50 31 21 36 18 26-15zm-145-8c-15-14-91-56-80-45 22 22 68 53 78 53 7 0 7-3 2-8zm-510-12c3-5 1-10-4-10-6 0-11 5-11 10 0 6 2 10 4 10 3 0 8-4 11-10zm63-25c-3-14-5-14-23 0-11 9-15 14-9 11 7-3 15 2 19 12 8 20 19 2 13-23zm534 8c4-32-26-73-54-73-10 0-18 1-18 3 1 18 31 81 41 88 22 14 27 11 31-18zm-622-3c0-5-5-10-11-10-5 0-7 5-4 10 3 6 8 10 11 10 2 0 4-4 4-10zm530-24c0-43-29-64-95-70-33-3-54-3-46 0 7 4 25 19 40 35 22 22 77 55 99 59 1 0 2-11 2-24zm-280-80c0-8-61-48-65-44-10 9 27 48 46 48 10 0 19-2 19-4zm-175-27c4-11 5-22 3-25-6-6-48 26-48 37 0 18 39 9 45-12zm295 1c0-5-15-10-32-9-31 1-32 1-8 9 35 11 40 11 40 0zm-275-79c3-5 1-12-4-15-5-3-11 1-15 9-6 16 9 21 19 6z"/><path d="M1780 1695c0-8 4-15 9-15 5 0 11 7 15 15 3 9 0 15-9 15-8 0-15-7-15-15z"/><path d="M2148 1793c5-21 7-23 10-9 2 10 0 22-6 28-6 6-7 0-4-19z"/><path d="M2370 4156c0-2 7-6 15-10 8-3 15-1 15 4 0 6-7 10-15 10-8 0-15-2-15-4z"/><path d="M1390 4130c0-5 6-10 14-10 8 0 18 5 21 10 3 6-3 10-14 10-12 0-21-4-21-10z"/><path d="M1326 4121c-4-5 3-7 14-4 23 6 26 13 6 13-8 0-17-4-20-9z"/><path d="M2e2 4015c0-8 5-15 10-15 6 0 10 7 10 15 0 8-4 15-10 15-5 0-10-7-10-15z"/><path d="M2764 3891c-25-15-31-26-32-55-1-20 3-36 8-36 9 0 15 29 11 58-1 6 2 12 6 12 4 0 9-55 11-123 4-155 6-170 20-175 8-2 11 45 11 167 1 94 0 171-2 171-1 0-16-9-33-19z"/><path d="M8e2 3815c-10-27-3-296 10-357 5-25 3-45-6-62-14-27-44-176-44-217 0-17 13-35 42-57 33-26 51-32 89-32 38 0 49 4 54 19 3 11 12 18 18 15 7-2 22 4 33 14 11 11 30 24 41 30 13 8 23 25 26 49 3 21 9 51 13 67l7 29-52-7c-57-7-121 7-121 27 1 22 27 47 49 47 12 0 31 5 43 11 20 11 20 11-2 34-30 31-20 69 23 95 17 10 38 25 46 32 48 44 111 64 111 36 0-7 12-24 25-37 18-16 24-30 19-43-5-17-3-18 14-9 11 6 22 8 25 3 2-4 3-2 1 4-1 5 4 21 12 35 7 13 13 36 14 50 0 15 6 32 14 38 18 15 17 49-2 56-8 3-29-3-46-13-17-10-51-22-74-25-40-7-42-6-42 18 0 14-5 25-11 25-6 0-9 7-5 15 4 11-1 15-17 15-13 0-27 4-33 10-6 6-28 5-61-4-45-12-54-12-64 0-6 8-18 14-26 14-7 0-16 7-19 15-4 8-13 15-22 15-8 0-24 7-33 16-14 13-16 21-8 35 8 16 6 19-11 19-13 0-24-9-30-25z"/><path d="M2545 3690c-3-5-1-10 4-10 6 0 11 5 11 10 0 6-2 10-4 10-3 0-8-4-11-10z"/><path d="M2510 3650c0-6-10-24-22-40-12-16-19-33-15-37 4-3 7-1 7 5 0 18 27 14 34-4 4-11 13-14 31-10 20 5 26 2 31-19 7-29 24-34 24-6 0 10-7 21-15 25-11 4-14 13-9 31 4 18 1 32-11 45-19 21-55 27-55 10z"/><path d="M2740 3638c0-9 5-20 10-23 13-8 13 5 0 25-8 13-10 13-10-2z"/><path d="M2787 3520c3-11 7-20 9-20 2 0 4 9 4 20 0 11-4 20-9 20-5 0-7-9-4-20z"/><path d="M1438 3304c-38-20-35-25 10-19 33 6 43 2 86-34 49-42 76-51 76-28 0 11-130 98-142 97-2-1-15-8-30-16z"/><path d="M1425 3225c31-59 45-75 52-57 6 17 23 15 23-3 0-18 50-21 50-2 1 6 9 2 19-10 22-26 31-29 31-10 0 30-78 77-128 77-16 0-35 10-49 28-22 26-22 25 2-23z"/><path d="M45 3215c-22-8-41-15-42-15-2 0-3-32-3-71 0-61 2-70 16-65 9 3 47 6 85 6h70l19 43c28 60 26 85-7 98-47 18-96 20-138 4z"/><path d="M320 3090c0-32 14-40 24-14 10 27 7 44-9 44-10 0-15-10-15-30z"/><path d="M1498 3113c7-3 16-2 19 1 4 3-2 6-13 5-11 0-14-3-6-6z"/><path d="M23 2917c-22-10-23-14-23-164 0-116 3-153 13-153 9 0 8-3-2-9-10-7-12-24-6-75 8-80 25-96 101-96 46 0 372 41 454 57 19 4 41 7 48 6 7 0 11 6 9 16-2 9-7 15-13 15-5-1-119-5-254-9-243-6-245-6-258 15-12 19-10 26 11 53 29 38 145 87 206 87 21 0 66 9 101 20 40 13 87 20 132 19 39-1 73 3 77 9 3 5 16 12 29 16 15 5 22 15 22 31 0 18 7 26 26 31 22 6 24 8 10 16-9 5-16 14-16 21 0 7-18 13-45 15-52 3-96 18-107 35-4 6-37 13-75 14-168 8-243 0-298-31-27-14-49-25-50-24-1 2-11 19-23 39-31 51-42 59-69 46z"/><path d="M744 2805c-19-14-19-14 2-15 12 0 21 6 21 15 0 18 1 18-23 0z"/><path d="M642 2104c-47-28-49-32-25-49 15-11 21-7 46 27 16 22 27 41 25 43-2 2-23-7-46-21z"/><path d="M695 2097c-39-48-39-47-3-37 18 6 34 10 35 10 2 0 3 9 3 20 0 22-19 26-35 7z"/><path d="M590 1871c-15-28-12-67 5-81 8-7 12-16 10-21-3-4 10-11 30-15 19-3 35-10 35-15 0-5-18-19-40-31-29-17-38-28-34-40 3-12 0-18-10-18-9 0-16 4-16 8 0 5-40 1-89-8-85-16-122-13-136 9-12 21-25 11-25-19 0-17-7-33-17-38-15-9-13-16 22-66 37-53 39-55 59-41 67 48 122 68 199 72 45 2 91 10 109 19 17 9 49 17 72 19 26 2 41 8 41 16 0 8 13 16 29 19 23 4 29 11 32 34 3 25 2 26-10 11-8-11-20-16-29-12-9 3-18 0-21-9-7-18-72-19-79-1-3 6-6 2-6-10-1-18-7-23-28-23-26 0-72 19-47 20 5 0 19 7 30 15 17 13 16 14-15 5-33-9-51-6-51 8 0 14 72 53 86 48 8-3 22 3 31 14 10 11 27 20 39 20 12 0 39 7 60 16 22 9 50 20 63 25 13 5 22 12 19 14-2 2-31-7-64-20-93-38-123-30-94 26 22 40-40 88-76 59-11-10-18-10-26-2-18 18-46 14-58-7z"/><path d="M860 1880c-9-6-10-10-3-10 6 0 15 5 18 10 8 12 4 12-15 0z"/><path d="M575 1751c-3-5-1-12 5-16 5-3 10 1 10 9 0 18-6 21-15 7z"/><path d="M919 1731c-13-11-19-20-14-20 14 0 50 28 43 34-3 3-16-3-29-14z"/><path d="M870 1730c-13-8-13-10 2-10 9 0 20 5 23 10 8 13-5 13-25 0z"/><path d="M729 1710l-24-21 33 16c31 15 41 25 23 25-5 0-19-9-32-20z"/><path d="M828 1693c7-3 16-2 19 1 4 3-2 6-13 5-11 0-14-3-6-6z"/><path d="M932 1639c-47-19-62-39-27-39 7 0 15-5 17-11 4-12 80 11 85 26 2 6-2 18-9 27-12 15-17 15-66-3z"/><path d="M660 1523c-32-6-70-41-70-65 0-10-5-27-12-37-15-25-5-47 32-66 46-24 70-26 87-10 8 9 18 13 23 10 17-10 20 29 4 47-10 10-19 41-22 73-2 30-7 54-11 54-3-1-17-4-31-6z"/><path d="M2673 1472c-16-16-16-15-1-47 7-17 23-28 41-32 19-4 37-19 53-44 13-22 25-39 27-39 1 0 3 40 4 89l2 90-56-2c-31-1-62-8-70-15z"/><path d="M1109 1410l-24-20 33 16c32 15 40 24 23 24-5 0-19-9-32-20z"/><path d="M934 14e2c0-13 4-16 10-10 7 7 7 13 0 20-6 6-10 3-10-10z"/><path d="M550 1384c1-16 29-60 29-44 0 8-6 24-14 34-8 11-15 16-15 10z"/><path d="M780 1380c-18-12-2-12 25 0 13 6 15 9 5 9-8 0-22-4-30-9z"/><path d="M1136 1371c-9-13 4-64 18-73 15-11 58-9 76 2 12 8 10 14-15 38-34 33-70 48-79 33z"/><path d="M2531 1348c-11-18-26-41-33-50-17-23 0-52 33-56 13-2 28-8 34-13 5-5 18-9 28-9 16 0 18 5 14 30-4 19-1 34 9 44 28 29-4 86-49 86-8 0-24-15-36-32zm57-45c-2-10-10-18-18-18-8 0-16 8-18 18-2 12 3 17 18 17 15 0 20-5 18-17z"/><path d="M911 1357c10-9 59-17 59-9 0 4-14 9-32 10-18 2-30 1-27-1z"/><path d="M470 1311c0-5 5-13 10-16 6-3 10-2 10 4 0 5-4 13-10 16-5 3-10 2-10-4z"/><path d="M1255 1290c-3-5-1-10 4-10 6 0 11 5 11 10 0 6-2 10-4 10-3 0-8-4-11-10z"/><path d="M2667 1283c-15-14-6-42 20-61 16-11 23-24 19-31-6-9-11-9-22 0-8 6-14 8-14 3 0-5-7 0-15 10-15 19-15 19-15-1 0-14-10-24-30-32-23-7-30-16-30-35 0-32-29-35-55-6-10 11-28 20-40 20-27 0-65 35-65 60 0 14-7 20-22 20-26 0-128-31-128-40 0-3 17-7 38-8 55-3 76-8 79-19 7-19-27-83-44-83-22 0-8-13 19-17 12-2 25-8 28-14 4-6 12-4 20 5 19 24 59 9 102-36 23-25 41-37 49-32 12 7 10-10-6-61-5-15 1-24 24-38 16-9 31-17 33-17 3 0 5 20 5 45 0 31-5 45-14 45-17 0-21 42-8 98 5 18 9 21 24 12 14-7 22-6 31 5 15 18 47 11 73-16 20-21 61-26 54-6-2 6-11 12-19 12-25 0-48 25-44 49 4 28 28 31 51 6 28-31 35-25 35 34 0 50-3 58-40 95-38 38-76 52-93 34z"/><path d="M1161 1254c0-11 3-14 6-6 3 7 2 16-1 19-3 4-6-2-5-13z"/><path d="M1306 1254c-5-14-4-15 9-4 17 14 19 20 6 20-5 0-12-7-15-16z"/><path d="M778 1253c7-3 16-2 19 1 4 3-2 6-13 5-11 0-14-3-6-6z"/><path d="M1862 1113c-53-75-59-88-45-98 9-6 16-22 17-36 1-13 7-23 13-22 13 3 15-2 41-108 17-67 18-92 10-238-7-116-7-171 1-188 6-13 11-35 11-49 0-33 17-64 35-64 19 0 19 24 0 40-20 16-20 76 0 84 17 6 45-2 45-15 0-4-10-15-22-23-27-19-18-32 11-15 24 16 39 5 21-16-11-13-8-15 17-15 16 0 34 5 41 12 14 14 102 28 102 16 0-4-7-8-15-8-19 0-56-21-71-40-7-9-26-13-47-12-25 2-39-3-49-16-7-10-21-21-32-25-12-5-16-13-11-25 10-27 27-182 22-201-3-9-8-24-12-33-6-16 17-17 329-17 202 0 338 4 341 9 4 6 11 10 16 10 6 0 8-4 5-9-3-5 33-9 79-10l85-2v90 89l-24-11c-13-7-22-15-20-19 3-5-2-8-10-8-9 0-16-8-16-17 0-15-2-16-10-3-13 21-12 30 3 30 8 0 14 7 14 15 0 22-6 19-59-28-28-26-35-13-15 28 15 32 15 36 2 42-10 3-13 12-9 25 4 15 3 18-6 13-8-5-11-4-6 3 3 6-1 15-10 20-10 6-14 14-9 22 6 10 10 9 17-4 5-9 16-16 25-16 10 0 13-6 9-17-7-16 27-57 38-46 3 3 12 0 21-7 8-7 25-10 40-6 22 6 24 11 23 50-2 35-5 43-18 38-12-4-12-2 3 15 24 28 22 36-20 58-21 10-48 28-61 39-13 12-26 20-28 18-2-1-15 5-28 13-13 9-40 17-59 18-20 2-44 10-55 20-10 9-27 17-38 17-16 0-17-2-4-11 11-8 12-12 2-16-6-2-10-9-6-14 3-5-9-9-26-9h-32l4 50c1 28 0 50-4 50-5 0-8-4-8-9 0-5-7-17-16-25-14-15-14-16 0-16 21 0 20-17-1-29-17-10-17-10 0-11 12 0 17-8 17-30 0-61-37-17-41 48-1 15 2 63 6 107 7 74 7 79-9 66-12-10-15-23-11-41 4-18 1-31-10-40-18-15-20-36-2-44 9-3 7-9-6-19-15-13-16-15-2-21 19-7 20-56 1-56-23 0-36 58-34 158 1 50-2 95-5 99-11 11-13-169-2-214 4-17-1-26-22-37-24-12-30-12-41 0-11 12-16 12-35-1-32-22-36-19-34 28 2 38 0 42-20 39-18-3-21 1-17 13 5 11 0 18-14 22-11 3-23 11-26 18-2 8-15 11-30 8-22-5-26-2-26 18 0 12 5 37 12 55 9 25 18 33 42 37 17 2 34 0 38-6 4-7 12-7 22 2 13 11 19 11 31 1 24-20 18 6-7 30-28 26-38 25-98-7-31-16-53-37-61-55-20-48-34-28-31 43 4 69-24 165-58 204-15 17-17 28-10 72 5 28 17 64 26 80 10 15 19 29 20 31 4 7 34-11 34-20 0-6 7-16 16-23 20-14 10-55-12-55-9 0-14-7-12-17 2-12 11-17 26-15 13 2 29-1 36-8 11-8 76-12 76-4 0 2-5 15-11 31-7 15-11 39-10 52 1 18-3 22-18 18-14-3-21 1-23 16-3 20-16 30-53 42-15 5-16 8-6 14 9 6 2 10-21 15-19 3-44 15-56 26-17 16-19 25-12 50 5 16 7 30 6 30-2 0-30-39-64-87zm9-79c12-14 11-16-5-13-11 2-21 10-24 17-5 17 13 15 29-4zm39-64c0-11-4-20-10-20-5 0-10 2-10 4 0 2-3 11-6 20-4 11-1 16 10 16 9 0 16-8 16-20zm70-490c0-12-28-25-36-17-9 9 6 27 22 27 8 0 14-5 14-10zm110-9c0-14-18-23-30-16-6 4-8 11-5 16 8 12 35 12 35 0zm45-27c-10-7-22-11-28-7-6 3-3 11 8 19 10 7 22 11 28 7 6-3 3-11-8-19zm-94-17c-13-16-5-28 15-20 18 7 18-4 0-23-19-18-30-18-23 0 3 8 1 16-5 18-14 5-3 38 13 38 8 0 9-4 0-13zm159-47c12-8 11-10-7-10-13 0-23 5-23 10 0 13 11 13 30 0zm575-51c11-16 1-19-13-3-7 8-8 14-3 14 5 0 13-5 16-11zm-274-41c3-5 9-9 13-9 26 4 56 0 52-7-7-12-90-6-115 7-11 6-29 11-40 11-12 0-21 5-21 10 0 13 102 1 111-12zm229-38c-8-5-5-12 11-24 13-9 19-16 14-16-5 0-19 10-32 22-13 12-23 16-23 10 0-7-5-12-10-12-6 0-6 7 1 19 8 11 19 16 31 13 13-3 16-7 8-12zm-683-66c-3-3-12-4-19-1-8 3-5 6 6 6 11 1 17-2 13-5zm178-14c10-11 23-20 29-20 6 0 3 7-6 14-19 14-14 26 10 26 9 0 12-6 8-16-5-13-1-15 18-10 14 3 27 2 30-3 3-5 0-9-7-8-34 1-46-5-49-25-3-21-5-21-35 12-18 19-33 38-33 43 0 13 17 7 35-13zm-75-24c0-3-4-8-10-11-5-3-10-1-10 4 0 6 5 11 10 11 6 0 10-2 10-4zm308-18c-16-5-28-14-28-19 0-11 54 0 58 13 2 4 13 8 25 7h22l-23-11c-16-8-21-17-16-31 3-11 2-17-3-14-5 3-15 2-23-4-12-6-12-9-2-9 7 0 20-6 27-14 12-12 9-13-23-11-21 2-40-1-44-8-5-8-10-5-15 8-13 32-34 30-28-2 3-16 3-23-1-16-3 7-12 9-19 7-8-3-20 0-28 7-18 17-1 66 26 75 24 8 36-4 17-16-12-8-10-10 8-10 19 0 21 3 13 18-14 26 5 42 49 41l35-1-27-10zm247 2c3-5-1-10-9-10-9 0-16 5-16 10 0 6 4 10 9 10 6 0 13-4 16-10zm-91-12c-3-4-12-8-20-8-8 0-14 4-14 8 0 4 9 8 19 8 11 0 17-4 15-8zm31-8c3-5 1-10-4-10-6 0-11 5-11 10 0 6 2 10 4 10 3 0 8-4 11-10zm-379-27c21-27 17-33-22-33-19 0-33 4-30 9 3 5-2 12-12 17-14 6-12 8 13 14 17 4 32 8 34 9 2 0 10-7 17-16z"/><path d="M2347 44c3-7 9-14 14-14 14 0 10 17-5 23-10 4-13 1-9-9z"/><path d="M574 1158c3-18 15-45 26-60 11-15 20-33 20-39 0-14 48-79 58-79 5 0 8 26 7 58-1 52-4 61-38 96-20 22-37 44-37 48 0 4-10 8-21 8-19 0-21-4-15-32z"/><path d="M865 1156c-14-10-19-25-17-57 0-24 1-57 2-73 1-36 24-64 67-82 42-18 57-18 49 1-3 8 3 35 14 60 15 35 16 47 7 57-7 7-29 34-50 61-42 52-45 53-72 33z"/><path d="M1021 1134c0-11 3-14 6-6 3 7 2 16-1 19-3 4-6-2-5-13z"/><path d="M1121 1084c0-11 3-14 6-6 3 7 2 16-1 19-3 4-6-2-5-13z"/><path d="M1241 1084c0-11 3-14 6-6 3 7 2 16-1 19-3 4-6-2-5-13z"/><path d="M1181 1074c0-11 3-14 6-6 3 7 2 16-1 19-3 4-6-2-5-13z"/><path d="M1347 1059c7-9 10-19 6-22-3-4-1-7 5-7 17 0 15 16-5 31-16 12-17 12-6-2z"/><path d="M1074 1048c4-14-1-18-24-18-31 0-36-10-21-39 5-9 11-32 13-51 4-29 9-35 39-43 19-5 45-18 59-30 14-12 36-28 50-36 25-14 25-14 7 7-12 13-16 28-12 41 8 27-53 120-66 1e2-6-10-11-5-19 16-13 38-33 77-26 53z"/><path d="M1232 1035c0-16 2-22 5-12 2 9 2 23 0 30-3 6-5-1-5-18z"/><path d="M1543 1048c-15-20-25-38-20-38 3 0 12 11 21 25 17 26 16 35-1 13z"/><path d="M1171 1015c1-19 18-51 18-35 0 8-4 22-9 30-5 8-9 11-9 5z"/><path d="M2665 973c-13-87-48-222-56-217-10 6-49-17-49-29 0-4 4-6 9-3 4 3 6-6 3-19-3-18 0-25 11-25 16 0 31 26 22 39-5 10 43 57 50 49 3-3 6-22 7-42 1-38 7-43 26-24 10 10 15 10 22-2 5-8 12-11 15-8 4 4 19 2 33-3 17-7 27-6 32 0 3 6 7 57 7 113 2 96-2 104-21 46-3-10-10-18-16-18-14 0-13 66 1 93 9 16 9 22 0 25-6 2-11 10-11 18 0 12-54 44-74 44-3 0-8-17-11-37zm55-112c0-5-7-28-15-51-8-23-15-53-15-66 0-13-4-24-9-24-9 0-2 94 10 128 8 21 29 31 29 13z"/><path d="M1296 991c-4-5 3-7 14-4 23 6 39-22 22-39-8-8-15-8-27 2-11 9-15 9-15 1 0-19 31-25 47-8 19 19 8 57-17 57-10 0-21-4-24-9z"/><path d="M825 950c-3-5-1-10 4-10 6 0 11 5 11 10 0 6-2 10-4 10-3 0-8-4-11-10z"/><path d="M830 910c6-11 19-24 30-30 11-6 19-16 17-22-1-6 5-13 13-15 13-4 13-3 0 6-13 9-13 11 1 11 8 0 24-7 35-15 22-17 38-20 29-5-9 14 1 12 36-6 17-8 33-14 35-11 2 2-14 12-36 22-22 10-43 15-46 12-8-8-59 18-84 43-10 10-16 21-12 24 3 3-2 6-12 6-14 0-15-4-6-20z"/><path d="M1250 911c0-7 4-9 10-6 5 3 23-1 40-10 23-12 30-13 30-2 0 7-8 13-17 14-10 1-28 4-40 8-15 5-23 3-23-4z"/><path d="M980 879c0-7 49-24 63-21 4 1 7-7 7-17 0-10 7-22 16-25 10-4 13-2 8 6-5 8 1 9 22 4 27-7 26-6-11 22-38 27-105 47-105 31z"/><path d="M1731 848c-13-16-21-31-19-33 7-7 51 42 47 53-2 5-15-4-28-20z"/><path d="M2031 852c-6-12-8-40-5-66 6-38 9-44 21-35 10 9 19 9 37-1 16-8 40-10 73-5l49 6-20 45c-12 24-22 39-24 34-2-6-10-6-23 0-15 8-19 7-19-5 0-8-5-15-11-15-6 0-9 9-6 20 3 11 1 18-4 14-5-3-9 0-9 6 0 7-6 10-14 7-7-3-18-1-24 5-7 7-14 4-21-10z"/><path d="M2572 851c2-7 7-12 11-12 12 1 9 15-3 20-7 2-11-2-8-8z"/><path d="M1844 788c2-24 4-53 4-65 3-36 22-26 22 11 0 46-11 96-21 96-4 0-7-19-5-42z"/><path d="M980 8e2c0-11 0-22 0-25 0-3 3-5 8-5 4 0 7 11 7 25 1 14-3 25-7 25-4 0-8-9-8-20z"/><path d="M1097 794c-4-4-7-23-7-43 0-20-4-53-9-74-16-68 13-126 54-111 17 7 19 20 5 60-5 16-11 60-13 98-3 65-13 87-30 70z"/><path d="M1735 780c-3-5-2-10 3-10 12 0 34-49 27-61-4-5-1-9 4-9 6 0 11 4 11 9 0 5 3 18 6 28 4 14 4 15-4 4-8-10-11-6-17 18-7 31-19 40-30 21z"/><path d="M2431 765c-1-26 26-114 40-132 7-7 16-34 20-60 9-47 36-99 46-89 3 3 1 11-5 18-5 7-18 42-27 78-9 36-23 76-31 90-8 14-21 45-28 70-8 25-14 36-15 25z"/><path d="M922 758c-19-19-14-34 13-46 15-7 25-20 25-33 0-18-4-21-29-16-19 4-33 1-41-8-10-12-9-15 8-15 28 0 66-65 57-99-11-41-5-115 9-126 7-5 21-22 30-37 10-16 25-28 32-28 24 0 16-20-12-30-19-8-23-14-16-23 6-7 13-39 16-72 6-59 5-60-32-93-38-35-35-36 30-15 14 4 16-1 11-39-3-23-10-51-15-60-8-16-3-18 41-18 27 0 53 5 56 10 14 22 14 101 0 147-8 26-15 79-15 117 0 61 2 67 18 62 14-5 14-4-2 9-11 8-17 18-13 21 4 4 13 1 22-6 8-7 15-8 15-3 0 5-11 15-24 21-22 10-25 19-32 91-3 45-10 81-15 81-4 0-20-5-35-10-19-8-30-8-38 0-8 8-2 19 23 39 36 30 30 48-12 37-27-6-52 7-43 23 4 6 18 11 32 11 13 0 24 4 24 8 0 25-56 112-73 112-1 0-8-5-15-12z"/><path d="M1274 728c3-15 26-23 26-8 0 6-4 9-9 6-5-4-12-1-14 4-3 6-4 5-3-2z"/><path d="M1272 664c10-10 20-15 24-12 3 4-5 12-18 18-22 12-22 12-6-6z"/><path d="M1212 621l-2-43-20 23-19 24-3-60c-2-73-1-88 10-145l9-45 2 41c1 29 8 47 26 64 17 16 23 29 19 40-4 8-11 44-14 80-6 54-7 58-8 21z"/><path d="M855 630c-3-5-1-10 4-10 6 0 11 5 11 10 0 6-2 10-4 10-3 0-8-4-11-10z"/><path d="M2708 604c23-14 42-30 42-36 0-5 7-8 15-4 9 3 15 0 15-9 0-8 1-18 3-22 1-3-9-8-22-10-14-2-32-9-40-16-14-11-14-10-2 6 19 25-2 49-33 37-26-10-78-2-88 14-5 7-13 5-25-8-13-13-15-20-5-23 6-3 12-14 12-26 0-17 13-28 55-46 30-14 52-28 49-33-3-4 3-11 13-15 10-4 24-13 32-20 23-23 24-6 2 26-12 16-37 39-57 51-19 12-33 24-31 27 3 2 28 1 57-3 39-5 54-12 57-25 3-11 14-19 24-19 17 0 19 8 19 74 0 87-8 97-81 101l-52 3 41-24z"/><path d="M2180 596c0-9 5-16 10-16 6 0 10 4 10 9 0 6-4 13-10 16-5 3-10-1-10-9z"/><path d="M2430 589c0-11 5-17 10-14 6 3 10 13 10 21 0 8-4 14-10 14-5 0-10-9-10-21z"/><path d="M1765 531c-53-40-53-39-40-133 6-48 5-58-8-58-20 0-37-22-39-54-2-17-8-26-20-26-10 0-18-7-18-15 0-18-12-19-27-4-16 16-35-45-23-77 8-19 5-34-11-65-11-22-19-45-17-51 2-6 12 8 23 31 17 40 20 41 54 35 20-4 37-7 38-8 1-1-16-23-39-49-55-65-40-72 18-8 35 39 53 51 75 51 16 0 29-3 29-6 0-11-23-50-43-71-18-20-18-23-4-23 10 0 27 20 42 49 19 39 24 59 19 93-6 42-5 44 55 96 34 29 66 63 72 75 7 14 1 11-17-10-16-18-49-48-73-68l-45-37-8 23c-8 21 0 32 61 89 39 36 71 71 71 78 0 6-19-9-41-33-23-25-45-45-49-45-4 0 13 39 37 88 24 48 35 76 25 63-20-24-20-24-26-3-4 12-2 30 3 41 15 27 14 38-1 18-7-9-31-26-52-37-31-15-42-17-48-7-8 12 13 36 62 68 14 9 23 19 20 22-3 4-28-11-55-32z"/><path d="M1305 513c-11-22-34-44-52-53-36-17-38-25-23-115 6-33 13-78 16-1e2 2-21 7-41 9-44 9-9 4 55-10 134-19 105-19 102 13 108 32 7 75 59 70 88-2 15-7 12-23-18z"/><path d="M2166 531c-3-5 0-11 8-14 15-6 26 1 26 15 0 11-27 10-34-1z"/><path d="M2233 524c-18-18-16-31 4-38 24-9 34 6 20 30-10 18-14 20-24 8z"/><path d="M1607 503c-16-58-17-72-4-67 7 2 13 22 14 44 2 42-2 52-10 23z"/><path d="M1686 505c-9-26-7-32 5-12 6 10 9 21 6 23-2 3-7-2-11-11z"/><path d="M1413 456c-13-58 1-84 16-30 13 47 14 74 3 74-5 0-13-20-19-44z"/><path d="M1517 453c-3-5-8-30-12-58-8-57-28-85-56-80-23 5-25-8-4-29 20-20 19-25-7-35-29-11-39 3-31 43 4 19 2 27-4 23-7-4-9 10-7 41 4 37 2 42-5 25-7-15-19-23-36-23-14 0-25-4-25-10 0-5 7-10 15-10 20 0 19-26-2-48-35-36-64-83-59-95 3-9 5-9 5 1 1 6 8 12 17 12 11 0 15-6 11-20-3-10 0-22 7-25 8-3 8-7-1-11-7-3-13-12-13-20 0-20 40-96 63-118 18-17 20-18 29-3 11 21 28 22 28 2 0-8 5-15 10-15 6 0 10 11 10 24 0 13 5 26 11 28 9 3 9 9 0 25-15 30-13 130 5 173 14 33 14 34 9 5-16-95-17-1e2-5-82 30 47 34 8 14-136-4-28-2-37 9-37 11 0 16 20 20 83 4 46 16 110 27 142 11 32 19 60 17 61-10 10-47-31-47-52 0-13-5-24-11-24-6 0-8 12-5 28 2 15 9 52 14 82 13 70 21 140 17 140-2 0-6-3-8-7zm-137-179c0-32-4-44-12-41-12 4-14 46-4 74 10 25 16 13 16-33zm30-145c0-20-4-29-12-26-12 4-18 34-11 50 10 18 23 4 23-24z"/><path d="M678 424c-3-3-4-22-1-43 4-26 1-41-11-50-23-19-20-36 11-56 24-16 27-16 38-1 7 9 19 16 27 16 14 0 48 39 48 55 0 10-31 5-60-10-34-18-39-12-33 33 5 32 7 33 39 27 35-6 43 2 22 23-12 12-70 17-80 6z"/><path d="M1590 410c0-5 5-10 10-10 6 0 10 5 10 10 0 6-4 10-10 10-5 0-10-4-10-10z"/><path d="M1151 380c-1-8-6-54-12-101-9-78-8-91 10-130 23-51 34-89 27-89-2 0-12 8-22 17-16 17-17 15-10-22 9-48 26-70 27-35v25l16-22c18-26 43-30 43-8 0 8-5 14-11 12-9-2-53 112-46 120 7 7 25-16 35-47l12-35-4 43c-3 28 0 45 8 48 15 6 9 61-10 89-8 11-14 38-15 60-1 34-2 36-8 15-7-23-9-21-24 25-8 28-16 43-16 35z"/><path d="M2780 371c0-6 5-13 10-16 6-3 10 1 10 9 0 9-4 16-10 16-5 0-10-4-10-9z"/><path d="M1411 354c0-11 3-14 6-6 3 7 2 16-1 19-3 4-6-2-5-13z"/><path d="M1549 329c-13-11-18-18-11-14 6 3 12 1 12-4 0-19 18-12 25 10 10 30 1 32-26 8z"/><path d="M1652 330c0-14 2-19 5-12 2 6 2 18 0 25-3 6-5 1-5-13z"/><path d="M886 331c-3-4 1-17 9-27 8-11 11-30 8-48-5-25 7-45 27-46 8 0 5 104-3 118-9 14-33 16-41 3z"/><path d="M1632 291c-11-7-11-9 1-14 9-3 18 1 21 9 6 16-2 18-22 5z"/><path d="M1601 274c0-11 3-14 6-6 3 7 2 16-1 19-3 4-6-2-5-13z"/><path d="M1885 225c4-11 9-35 12-53 5-29 7-31 19-15 17 22 18 34 3 30-6-1-14 4-16 11-3 6 2 12 11 12 9 0 16 5 16 11 0 6-7 8-17 5-9-4-21-1-26 6-6 9-7 7-2-7z"/><path d="M1846 169c-11-16-12-27-5-41 15-28 44-18 45 15 1 39-20 54-40 26zm24-3c0-3-4-8-10-11-5-3-10-1-10 4 0 6 5 11 10 11 6 0 10-2 10-4zm10-26c0-5-8-10-17-10-15 0-16 2-3 10 19 12 20 12 20 0z"/><path d="M1793 138c1-7 7-18 14-26 7-7 9-20 6-30-6-15-5-15 10-3 16 12 15 15-4 42-22 31-31 36-26 17z"/><path d="M1276 131c-3-5 1-11 9-15 8-3 15-1 15 4 0 13-18 22-24 11z"/><path d="M1290 83c0-12 5-25 10-28 13-8 13 15 0 35-8 12-10 11-10-7z"/><path d="M1250 20c0-11 4-20 9-20 5 0 7 9 4 20-3 11-7 20-9 20-2 0-4-9-4-20z"/><path d="M1550 16c0-9 7-16 16-16 17 0 14 22-4 28-7 2-12-3-12-12z"/></g></svg>