<?xml version="1.0" encoding="UTF-8" standalone="no"?>
<!-- Created with Inkscape (http://www.inkscape.org/) -->

<svg
   version="1.1"
   id="svg2"
   xml:space="preserve"
   width="257.33334"
   height="257.33334"
   viewBox="0 0 257.33334 257.33334"
   sodipodi:docname="Frey_Wille.eps"
   xmlns:inkscape="http://www.inkscape.org/namespaces/inkscape"
   xmlns:sodipodi="http://sodipodi.sourceforge.net/DTD/sodipodi-0.dtd"
   xmlns="http://www.w3.org/2000/svg"
   xmlns:svg="http://www.w3.org/2000/svg"><defs
     id="defs6" /><sodipodi:namedview
     id="namedview4"
     pagecolor="#ffffff"
     bordercolor="#666666"
     borderopacity="1.0"
     inkscape:pageshadow="2"
     inkscape:pageopacity="0.0"
     inkscape:pagecheckerboard="0" /><g
     id="g8"
     inkscape:groupmode="layer"
     inkscape:label="ink_ext_XXXXXX"
     transform="matrix(1.3333333,0,0,-1.3333333,0,257.33333)"><g
       id="g10"
       transform="scale(0.1)"><path
         d="M 0,1927.56 H 1927.56 V 0 H 0 v 1927.56"
         style="fill:#ffffff;fill-opacity:1;fill-rule:evenodd;stroke:none"
         id="path12" /><path
         d="m 662.598,1626.43 c 6.937,0 12.582,5.61 12.582,12.54 0,6.93 -5.645,12.56 -12.582,12.56 -6.938,0 -12.571,-5.63 -12.571,-12.56 0,-6.93 5.633,-12.54 12.571,-12.54"
         style="fill:#0d2249;fill-opacity:1;fill-rule:evenodd;stroke:none"
         id="path14" /><path
         d="m 689.199,1151.1 c 10.656,-41.6 39.078,-107.3 51.477,-122.56 4.398,-6.36 9.336,-13.59 13.789,-20.63 0.613,0.75 1.187,1.53 1.738,2.41 9.656,15.98 8.238,49.55 3.582,66.66 -1.457,5.32 -5.379,15.1 -9.898,26.44 l -4.164,10.26 c -8.321,20.46 -16.883,41.52 -19.828,59.27 -11.875,-11.86 -23.75,-18.88 -36.696,-21.85"
         style="fill:#0d2249;fill-opacity:1;fill-rule:evenodd;stroke:none"
         id="path16" /><path
         d="m 687.914,886.789 c 1.848,8.703 7.883,15.961 16.996,20.434 3.555,1.726 4.137,2.445 4.715,3.14 0.395,0.469 0.902,1.055 1.723,1.715 0.207,0.141 0.293,0.223 0.394,0.313 0.203,0.777 0.559,1.773 1.504,3.453 5.106,8.949 12.809,9.847 17.656,10.422 8.078,0.941 15.371,-6.403 16.754,-7.895 l 1.637,-1.754 -1.164,-2.105 -3.969,-6.996 -1.98,-2.274 -3.043,1.43 c -1.188,1.012 -1.34,2.277 -1.348,3.058 -0.148,0.071 -0.32,-0.664 -0.609,-0.554 -3.856,1.445 -7.168,1.133 -7.953,-0.258 l -1.555,-0.469 c -1.313,-2.273 -2.57,-3.39 -3.539,-4.672 -4.746,-6.425 -5.738,-7.996 -10.758,-10.527 -5.148,-2.637 -7.035,-4.867 -8.051,-9.594 -0.929,-4.394 -0.562,-9.234 3.278,-15.176 0.332,0.161 0.652,0.329 1.039,0.563 0.964,0.566 2.203,1.262 4.406,1.996 8.351,2.695 17.84,5.75 29.058,3.891 0,0 5.497,-0.922 5.512,-0.922 16.789,-2.848 25.227,-4.278 40.903,0.414 6.425,1.926 6.425,3.801 6.484,10.031 0.019,4.817 0.062,12.09 6.437,17.164 l 0.461,0.36 0.442,0.378 0.566,0.18 0.567,0.188 c 9.187,3.07 17.144,10.406 21.804,20.175 5.809,12.161 6.024,26.813 0.621,41.219 -20.308,54.013 -44.929,158.203 -40.293,209.063 -12.48,2.81 -26.336,6.7 -38.832,13.44 -0.172,-0.17 -0.336,-0.37 -0.507,-0.55 -0.329,-0.34 -0.649,-0.72 -1.012,-1.12 -1.375,-17.95 13.902,-56.13 24.09,-81.57 4.672,-11.7 8.73,-21.81 10.375,-27.87 5.199,-19.07 7.222,-56.71 -5.012,-76.92 -1.746,-2.871 -3.836,-5.211 -6.07,-7.277 9.855,-17.809 13.277,-31.344 11.242,-44.778 -1.289,-8.465 -4.953,-14.094 -10.883,-16.746 -8.434,-3.758 -19.793,-0.664 -35.734,9.664 -14.645,6.008 -29.305,-7.562 -37.395,-21.043 l -0.512,-0.847 -0.504,-0.833 -0.875,-0.421 c 0,0 -0.886,-0.438 -0.894,-0.438 -2.188,-1.058 -3.766,-1.766 -4.91,-2.266 -2.555,-1.148 -2.555,-1.148 -6.293,-4.847 l -0.442,-0.434 -3.011,-3.008 c -5.024,-7.277 -10.914,-20.984 4.461,-32.503 1.839,-1.364 3.652,-2.434 5.48,-3.274 -2.09,5.836 -2.644,11.715 -1.457,17.25"
         style="fill:#0d2249;fill-opacity:1;fill-rule:evenodd;stroke:none"
         id="path18" /><path
         d="m 588.59,1057.45 c 0,0 2.937,3.24 2.937,3.25 10.637,11.63 20.602,45.01 29.407,74.49 3.113,10.43 6.054,20.3 8.968,29.01 7.711,23.09 23.95,31.48 37.008,38.19 6.32,3.27 12.235,6.41 15.43,10.82 -3.445,29.74 11.777,76.66 40.176,110.37 10.226,12.13 34.16,30.69 58.531,48.94 l 16.32,12.13 c 33.36,24.71 77.434,58.73 99.031,84.38 -0.761,-0.36 -4.726,-2.74 -5.339,-2.99 -19.215,-7.31 -28.75,-10.59 -46.481,-15.95 -16.543,-6.23 -41.101,-13.38 -67.101,-20.96 -55.93,-16.31 -125.391,-36.59 -153.997,-58.17 l -0.183,-0.41 -0.293,-0.66 -0.559,-0.49 -0.547,-0.48 c -58.308,-51.15 -44.683,-136.87 -27.972,-157.25 l 1.242,-1.51 1.223,-1.52 -0.731,-1.79 -0.726,-1.81 c -18.661,-46.08 -26.813,-96.46 -34.008,-140.91 -1.672,-10.31 -3.395,-20.83 -5.188,-30.85 14.098,3.61 23.274,13.58 32.852,24.17"
         style="fill:#0d2249;fill-opacity:1;fill-rule:evenodd;stroke:none"
         id="path20" /><path
         d="m 717.641,1486.78 c -1.696,-3.84 -3.493,-11.46 -0.575,-17.46 24.715,-1.15 83.954,9.76 111.434,31.58 -0.273,1.63 -0.621,3.65 -0.621,3.65 l -4.379,10.44 c -0.918,-0.56 -0.195,-0.3 -1.129,-0.83 -27.051,-15.38 -75.711,-28.76 -104.73,-27.38"
         style="fill:#0d2249;fill-opacity:1;fill-rule:evenodd;stroke:none"
         id="path22" /><path
         d="m 809.883,1372.42 -18.871,-13.98 c -26.11,-19.56 -48.668,-36.46 -57.461,-46.9 -27.942,-33.19 -36.61,-74.87 -32.797,-99.54 l 0.176,-1.11 0.164,-1.1 -0.551,-0.99 -0.543,-0.99 c -4.719,-8.48 -13.113,-12.79 -21.984,-17.37 -12.055,-6.23 -24.528,-12.64 -30.528,-30.67 -2.847,-8.5 -5.781,-18.28 -8.863,-28.63 -9.641,-32.32 -19.613,-65.74 -32.277,-79.57 0,0 -2.926,-3.21 -2.926,-3.21 -11.774,-13 -24.043,-26.33 -45.215,-29.39 -1.769,-8.94 -3.508,-16.61 -5.269,-23.271 -1.032,-3.851 -2.004,-7.832 -2.926,-11.687 -5.805,-23.946 -12.371,-51.098 -37.145,-48.953 l -1.082,0.097 -1.129,0.094 -0.824,0.754 -0.809,0.734 c -9.183,8.278 -22.339,9.61 -35.187,3.539 -5.348,-2.539 -8.004,-7.925 -11.68,-15.363 -1.39,-2.848 -2.816,-5.766 -4.57,-8.859 l -0.566,-1 -0.575,-1.004 -1.066,-0.426 -1.074,-0.426 c -4.641,-1.851 -20.004,-8.621 -22.684,-17.832 -1.848,-6.344 -1.269,-12.48 1.625,-17.262 1.621,-2.644 3.988,-4.789 6.977,-6.48 -0.055,1.41 -0.106,2.816 0.07,4.25 0.805,6.922 5.238,19.906 25.922,28.965 4.777,2.109 5.457,4.496 6.699,8.816 3.184,11.203 17.785,16.192 28.715,13.16 l 0.453,-0.125 0.383,-0.222 5.363,-3.278 3.52,-6.66 -6.254,0.555 c -15.891,-1.012 -13.75,-6.949 -16.887,-11.383 l -0.176,1.879 c -1.418,-5.035 -3.597,-12.641 -14.054,-17.238 -12.504,-5.477 -15.352,-9.824 -16.082,-15.977 -0.235,-2.062 -0.747,-4.597 0.742,-7.035 l 0.101,-0.191 c 0.305,-0.09 0.586,-0.235 0.871,-0.391 1.196,-0.09 5.481,-0.348 5.493,-0.348 10.824,-0.742 14.871,-1.004 29.406,3.243 7.707,2.222 17.992,-0.184 27.199,-2.954 2.746,0.5 10.602,3.207 11.715,7.293 6.742,24.543 20.949,28.118 32.344,31.024 9.3,2.359 15.992,4.058 20.492,16.027 5.789,15.442 15.176,44.738 26.051,78.688 19.867,62.067 42.269,131.977 54.992,155.707 -0.106,0.07 -0.25,0.17 -0.25,0.18 l 1.594,2.72 c 0.394,0.67 0.8,1.36 1.25,2.01 l 0.843,1.22 0.848,1.2 1.453,0.19 1.449,0.18 c 14.321,1.78 29.016,11.5 43.707,28.8 -4.652,30.53 3.618,60.05 13.118,77.67 15.863,29.4 27.855,40.94 85.511,82.22 14.645,10.48 26.008,18.17 35.164,24.37 27.215,18.42 36.383,24.63 61.586,56.65 20.828,26.47 24.207,43.81 20.961,65.37 l -16.258,-21.18 c -16.679,-37.08 -65.379,-72.93 -108.394,-104.61"
         style="fill:#0d2249;fill-opacity:1;fill-rule:evenodd;stroke:none"
         id="path24" /><path
         d="m 666.91,1562.15 c 0,0 -0.422,-2.07 -0.437,-2.1 l -0.407,-0.01 c -1.785,-3.09 -6.054,-5.66 -12.183,-8.58 -5.649,-2.67 -12.598,-3.24 -17.207,-3.61 -1.371,-0.1 -2.567,-0.2 -3.137,-0.32 -0.187,-0.03 -0.348,-0.05 -0.48,-0.07 -0.77,-0.1 -1.196,-1.68 -1.446,-3.25 1.203,-2.04 2.028,-2.86 1.989,-2.83 l 1.586,-1.28 -0.864,-1.85 c -3.769,-8.22 -7.922,-18.13 -8.187,-20.13 0.398,-2.28 1.332,-4.22 1.855,-4.62 4.742,-3.55 25.039,-4.16 53.289,1.67 0.184,0.06 18.953,4.23 25.625,7.29 -5.023,10.58 -3.734,22.19 3.766,32.44 -2.117,5.35 -2.57,11.11 -1.145,16.75 2.586,10.32 10.789,20.48 21.418,26.78 0.5,1.22 1.668,2.14 2.567,2.81 0.265,0.2 0.597,0.46 0.871,0.7 -3.289,14.05 -15.203,56.91 -40.055,69.1 -13.898,6.81 -37.269,8.8 -57.422,-8.02 l -3.726,-3.09 -0.571,4.81 -1.179,9.79 -0.059,0.49 0.121,0.48 0.258,0.98 0.211,0.78 0.629,0.53 c 0,0 0.742,0.65 0.949,0.84 20.477,14.58 43.246,17.42 65.828,8.17 12.317,-5.04 22.067,-13.66 30.453,-26.83 0.668,0.88 1.282,1.66 1.821,2.35 2.871,3.64 3.379,4.48 3.015,6.09 0,0 -0.117,0.58 -0.117,0.59 l 0.129,0.57 c 0.082,0.39 1.949,9.56 -9.754,15.38 -20.309,10.69 -36.516,9.91 -65.949,8.53 0,0 -1.262,-0.06 -1.156,-0.05 l -26.653,-2.46 c -5.824,-33.42 -16.093,-64.97 -23.383,-85.93 -1.945,-5.61 -3.785,-10.91 -5.41,-15.91 -1.136,-3.58 -1.113,-5.5 -0.996,-6 0.141,-0.24 0.324,-0.47 0.449,-0.7 0.137,-0.24 0.313,-0.56 0.457,-0.75 l 0.172,-0.04 0.375,-0.28 c 0.172,-0.09 1.457,-0.65 6.934,-0.88 0.133,0 0.191,-0.02 0.258,-0.02 0.785,0.06 2.695,0.09 6.57,0.16 2.547,0.02 5.395,0.07 6.137,0.11 6.109,0.38 7.301,-0.32 10.148,-3.71 l 0.477,-0.54 c 0.906,-1.07 0.937,-2.49 0.793,-3.53 -0.219,-1.76 -1.164,-3.31 -2.395,-4.55 l -0.332,-0.42 c -0.68,-0.93 -0.125,-2.12 0.512,-3 1.141,-0.17 4.535,-0.44 12.301,0.7 0.781,0.2 8.257,2.74 12.793,4.29 l -0.453,-0.21 c 2.539,1.45 4.515,1.14 5.738,0.63 3.148,-1.36 4.078,-5.24 4.445,-6.7 0.004,-0.08 0.039,-0.18 0.059,-0.21 l 0.121,-1.27 c 0,-0.03 -0.016,-0.03 -0.016,-0.06 z m -24.129,57.9 -0.183,0.01 -0.188,0.03 c -1.375,0.21 -10.234,0.62 -15.484,0.85 l -3.426,0.13 0.996,3.28 3.918,12.61 0.094,0.3 0.152,0.26 0.442,0.73 c 2.546,4.33 2.593,4.41 4.41,6.91 0,0 3.855,5.35 3.828,5.35 1.078,1.47 8.789,5.39 8.84,5.41 l 0.433,0.17 -0.504,-0.26 c 3.836,2.56 14.969,3.47 17.313,2.85 l -0.508,0.09 c 8.715,-0.61 15.586,-3.11 20.402,-7.47 8.477,-7.65 14.36,-15.43 14.723,-15.91 l 5.277,-8.19 2.09,-3.25 -3.785,-0.76 c 0,0 -7.808,-1.56 -8.058,-1.6 -1.622,-0.17 -3.102,-0.19 -4.547,-0.21 -2.047,-0.02 -3.981,-0.05 -6.075,-0.5 -6.48,-1.34 -36.738,-0.9 -40.16,-0.83"
         style="fill:#0d2249;fill-opacity:1;fill-rule:evenodd;stroke:none"
         id="path26" /><path
         d="m 639.559,1751.73 c 8.074,-0.54 18.414,-0.63 28.586,-0.69 37.992,-0.22 94.746,-0.64 127.085,-23.38 8.563,28.12 26.153,69.4 49.817,100.32 -26.527,10.38 -77.438,15.93 -131.633,14.24 -35.68,-1.13 -66.359,-5.49 -87.098,-12.31 4.93,-10.02 8.747,-19.86 11.266,-29.3 4.746,-17.72 5.356,-34.14 1.977,-48.88"
         style="fill:#0d2249;fill-opacity:1;fill-rule:evenodd;stroke:none"
         id="path28" /><path
         d="m 710.922,1444.43 -0.141,0.03 c -8.355,1.25 -11.894,4.55 -12.269,4.93 l -0.324,0.32 -0.196,0.4 c -7.156,14.94 -6.051,24.09 -3.828,29.12 l -0.105,-0.26 c 0.722,2.31 1.66,4.55 2.851,6.53 -0.566,0.89 -1.168,1.88 -1.117,1.79 -1.629,2.19 -2.281,5.34 -1.969,9.39 -1.707,-0.47 -3.441,-0.88 -5.195,-1.25 -12.715,-24.3 -31.133,-59.62 -46.586,-92.38 36.074,17.51 90.242,33.3 134.316,46.17 0,0 24.286,6.79 24.317,6.8 10.289,2.81 19.48,5.36 27.265,7.78 -1.05,3.72 -2.089,7.71 -2.984,11.65 -32.832,-20.38 -87.629,-31.81 -113.859,-31.02 h -0.176"
         style="fill:#0d2249;fill-opacity:1;fill-rule:evenodd;stroke:none"
         id="path30" /><path
         d="m 859.16,1351.2 c -7.094,-5.14 -13.797,-10 -21.418,-15.27 l -7.984,-5.56 c 1.219,-1.43 2.41,-2.83 3.683,-4.36 9.145,-10.96 38.68,-39.43 58.114,-45.54 l 4.789,-1.6 c 17.32,-4.02 40.011,0.9 55.386,12.09 3.5,2.57 7.625,5.68 10.602,9.84 -41.664,5.18 -89.203,41.24 -101.836,51.38 -0.68,-0.51 -1.336,-0.98 -1.336,-0.98"
         style="fill:#0d2249;fill-opacity:1;fill-rule:evenodd;stroke:none"
         id="path32" /><path
         d="m 907.473,1382.39 c -5.887,-4.78 -12.426,-8.74 -19.703,-13.01 -3.364,-1.97 -6.129,-3.68 -8.7,-5.32 22.399,-16.82 63.399,-40.48 93.328,-42.46 1.125,0.09 2.809,0.22 3.165,0.24 21.039,0 58.287,6.23 77.057,46.26 -53.788,-9.39 -110.874,0.12 -145.147,14.29"
         style="fill:#0d2249;fill-opacity:1;fill-rule:evenodd;stroke:none"
         id="path34" /><path
         d="m 1056.4,1424.44 c -29.09,-5.97 -82.556,-15.02 -117.002,-9.56 -4.316,-4.96 -8.726,-9.72 -13.148,-14.16 35.898,-12.27 96.48,-19.09 143.73,-8.3 l 0.3,1.08 1.72,0.21 2.13,0.29 c 0,0 0.5,0.07 0.41,0.06 l 1.03,0.18 1.82,0.29 c 0.35,0.07 0.75,0.17 1.14,0.25 0,0 0.28,0.06 0.06,0.01 5.78,1.76 15.3,6.69 28.3,14.64 15.07,12.06 32.27,33.57 34.09,56.39 -1.81,-1.28 -3.57,-2.46 -5.52,-3.84 -17.93,-12.67 -42.48,-30.03 -79.06,-37.54"
         style="fill:#0d2249;fill-opacity:1;fill-rule:evenodd;stroke:none"
         id="path36" /><path
         d="m 812.23,1237.29 c 0,0 -0.195,0.11 -0.417,0.24 l -0.188,0.11 c -14.953,9.56 -27.836,23.4 -39.387,42.23 -16.008,-23.66 -21.601,-48.97 -20.05,-64.05 25.113,-4.69 45.738,-5.5 61.507,20.84 l -1.238,0.56 c 0.02,-0.01 -0.227,0.07 -0.227,0.07"
         style="fill:#0d2249;fill-opacity:1;fill-rule:evenodd;stroke:none"
         id="path38" /><path
         d="m 964.547,1648.95 c -14.356,17.53 -35.176,26.75 -57.121,25.3 -19.289,-1.27 -31.93,-4.35 -43.317,-16.77 l -4.546,-6.06 c -11.59,-19.29 -13.473,-41.76 -4.61,-54.66 5.477,-7.96 14.727,-11.83 26.82,-11.38 0.618,10.72 5.172,19.92 13.067,26.06 10.957,8.54 26.535,10.2 40.656,4.36 17.367,-7.2 28.852,-23.91 31.527,-45.89 0.223,-1.89 0.231,-3.96 0.149,-6.09 13.715,35.02 12.965,66.09 -2.625,85.13"
         style="fill:#0d2249;fill-opacity:1;fill-rule:evenodd;stroke:none"
         id="path40" /><path
         d="m 1168.9,1587.56 c -24.61,-54.82 -84.37,-93.97 -109.66,-108.57 -30.51,-17.65 -70.506,-28.01 -97.287,-30.67 -0.855,-1.47 -1.68,-2.97 -2.406,-4.32 -1.793,-3.26 -3.711,-6.64 -5.82,-10.03 23.281,-1.26 61.123,1.61 97.823,13.85 32.44,10.78 63.64,26.32 83.48,41.52 l 1.97,1.54 0.11,-0.12 c 43.01,34.05 39.75,73.14 31.79,96.8"
         style="fill:#0d2249;fill-opacity:1;fill-rule:evenodd;stroke:none"
         id="path42" /><path
         d="m 980.434,1663.7 c 29.766,-41.66 14.914,-97 -8.625,-135.44 33.621,30.77 61.811,102.02 48.571,150.93 -11.91,43.88 -25.54,59.96 -63.431,74.65 -44.824,10.9 -71.312,-7.75 -85.617,-25.33 -11.66,-14.33 -15.707,-30.73 -12.242,-48.78 14.953,11.97 36.902,15.27 49.273,16.08 28.977,1.92 59.973,-15.18 72.071,-32.11"
         style="fill:#0d2249;fill-opacity:1;fill-rule:evenodd;stroke:none"
         id="path44" /><path
         d="m 1098.52,1591.52 c -25.01,-46.5 -93.54,-97.57 -126.54,-107.61 -0.554,-2.17 -1.011,-4.39 -1.339,-6.32 -0.309,-1.84 -0.723,-3.86 -1.196,-5.92 19.883,3.57 50.515,12.75 77.465,28.34 60.63,35.05 98.43,74.8 109.34,115 0.16,0.56 13.4,39.95 -3.87,65.01 -6.65,9.66 -14.61,16.48 -23.58,20.7 1.65,-23.9 -1.6,-55.87 -30.28,-109.2"
         style="fill:#0d2249;fill-opacity:1;fill-rule:evenodd;stroke:none"
         id="path46" /><path
         d="m 1044,1689.04 c 14.18,-61.46 -23.66,-157.03 -72.535,-184.4 0.082,-0.61 0.191,-1.27 0.363,-2.01 0,-0.03 0,-0.06 0,-0.07 29.022,13.33 81.602,55.62 103.582,96.49 27.34,50.83 30.74,80.21 27.22,108.38 l -0.33,0.36 -0.86,0.91 0.16,1.22 0.17,1.52 0.04,0.37 c -3.17,25.84 -24.06,51.01 -50.89,61.28 -22.4,8.57 -46.13,5.61 -67.369,-8.03 32.579,-16.67 52.489,-41.52 60.449,-76.02"
         style="fill:#0d2249;fill-opacity:1;fill-rule:evenodd;stroke:none"
         id="path48" /><path
         d="m 1350.27,923.781 c -6.05,5.922 -6.05,5.922 -11.52,3.028 -1.68,-1.036 -2.31,-1.383 -2.75,-1.625 -13.18,-6.805 -28.03,-20.344 -31.56,-35.27 -1.58,-6.672 -0.31,-13.25 3.56,-19.609 l 5.32,0.496 c -0.02,14.265 2.18,32.558 18.04,39.043 16.02,6.496 23.26,2.613 31.63,-1.891 l 0.66,-0.344 c 11.23,-6.011 23.31,-9.218 32.32,-8.582 l 1.8,0.129 0.76,-1.66 5.13,-11.043 1.59,-3.433 -3.8,-0.301 -2.97,-0.219 c -11.68,-0.855 -13.77,-0.996 -24.75,2.184 -2.77,0.785 -7.09,2.265 -12.04,4.808 -6.57,3.34 -19.17,5.149 -24.69,0.449 -4.16,-3.511 -3.5,-14.035 -2.9,-19.703 3.89,0 22.94,0.047 22.94,0.047 l 14.23,0.02 c 2.35,0 3.87,0 5.16,-0.047 1.05,0.472 1.96,0.879 2.68,1.238 1.27,0.617 2.44,1.254 3.62,1.953 1.49,0.852 3.04,1.602 4.75,2.297 10.73,4.317 19.63,1.742 25.4,-0.59 2.45,-0.984 4.64,-2.058 6.76,-3.129 1.15,-0.55 2.31,-1.058 3.54,-1.621 h 8.77 c 1.93,1.285 3.89,3.137 6.06,5.778 15,18.457 14.33,28.781 12.73,53.738 0,0 -0.36,5.668 -0.36,5.703 -1.37,22.59 -1.29,44.281 -1.21,63.402 0.08,17.773 0.22,54.763 -3.92,58.303 -2.62,2.25 -11.98,1.75 -18.84,1.38 -8.94,-0.46 -18.17,-0.95 -26.45,2.02 -0.14,0.05 -0.4,0.14 -0.62,0.25 l -0.01,-0.03 -0.62,0.22 -0.61,0.21 -0.51,0.19 -0.38,0.35 -0.5,0.45 c 0,0 -0.49,0.44 -0.47,0.44 -0.5,0.46 -0.51,0.47 -0.5,0.46 -15.68,14.27 -41.96,44.78 -41.96,88.62 0,9.71 0.58,20.83 1.13,32.64 0.82,16.02 1.69,34.17 1.04,49.63 -0.02,0.35 -0.04,0.61 -0.04,0.85 -0.46,0.19 -0.87,0.39 -1.31,0.59 -2.67,-9.77 -7.67,-19.62 -20.82,-33.64 -10.57,-11.31 -21.5,-19.95 -34.34,-27.2 -2.24,-1.28 -4.57,-2.51 -6.96,-3.69 -6.92,-3.43 -14.48,-6.52 -23.07,-9.46 -0.24,-0.08 -0.5,-0.18 -0.88,-0.32 -0.49,-0.2 -1.07,-0.4 -1.71,-0.61 -0.82,-0.28 -1.63,-0.51 -2.51,-0.77 0,0 -1.42,-0.43 -1.39,-0.42 l -1.07,-0.33 c -1.93,-0.61 -4.26,-1.32 -6.72,-2.02 -0.48,-0.25 -1.84,-0.92 -1.99,-0.99 l -0.25,0.34 c -2.87,-0.81 -5.49,-1.57 -7.84,-2.29 l -0.96,-0.31 c 0.07,-19.72 6.25,-46.26 48.5,-79.1 10.38,-8.08 26.34,-14.82 43.23,-21.94 17.5,-7.39 35.58,-15.02 49.55,-25.22 2.2,-1.63 4.29,-3.31 6.2,-5 4.21,-3.68 7.73,-7.61 10.51,-11.7 1.52,-2.2 2.85,-4.52 3.97,-6.86 0.12,-0.3 0.23,-0.5 0.31,-0.75 14.87,-32.164 14.21,-69.465 4.31,-82.832 -2.37,-3.195 -6.39,-5.843 -8.04,-6.84 l -0.3,-0.191 -0.31,-0.187 -0.25,-0.153 -0.25,-0.086 -0.34,-0.105 c -0.1,-0.039 -0.16,-0.016 -0.26,-0.039 l -0.03,-0.078 -0.03,0.078 c -0.03,-0.012 -0.03,0 -0.04,-0.012 l 0.01,-0.094 c -29.12,-9.988 -42.54,3.157 -50.56,11"
         style="fill:#0d2249;fill-opacity:1;fill-rule:evenodd;stroke:none"
         id="path50" /><path
         d="m 819.016,1312.36 c 0,0 -3.305,4.07 -3.317,4.07 -0.621,0.76 -1.09,1.32 -1.625,1.98 -4.886,-3.53 -9.855,-7.22 -15.816,-11.74 -4.102,-3.13 -8.195,-6.94 -12.41,-11.39 0.886,-1.19 1.882,-2.5 1.898,-2.51 10.813,-14.48 25.594,-34.26 43.574,-42.92 26.817,-5.31 40.996,7.12 46.555,13.99 -24.316,9.86 -44.16,30.92 -58.859,48.52"
         style="fill:#0d2249;fill-opacity:1;fill-rule:evenodd;stroke:none"
         id="path52" /><path
         d="m 668.848,1731.31 c -14.262,0.09 -26.965,0.74 -36.16,1.83 -2.903,-9 -4.067,-17.7 -2.989,-23.54 0.086,-0.43 0.203,-0.75 0.321,-1.12 4.585,0.62 15.597,2.07 15.597,2.07 0.266,0.04 0.352,0.06 0.672,0.06 l 7.551,0.12 c 23.695,0.4 39.367,0.66 67.73,-6.25 l 0.493,-0.13 0.335,-0.07 0.293,-0.19 0.434,-0.26 c 0,0 2.621,-1.57 2.543,-1.53 20.324,-6.03 25.191,-17.77 27.07,-26.09 2.625,-11.57 -4.574,-24.01 -12.953,-35.79 2.875,-6.63 5.43,-13.69 7.723,-20.97 5.172,3.81 10.93,6.44 17.219,7.68 12.449,2.47 24.804,-0.39 35.164,-7.95 12.183,36.28 13.679,60.26 4.269,71.13 -0.332,0.38 -7.793,9.05 -10.75,14.6 l -0.051,-0.03 c -23.558,25.82 -84.312,26.19 -124.511,26.43"
         style="fill:#0d2249;fill-opacity:1;fill-rule:evenodd;stroke:none"
         id="path54" /><path
         d="m 742.176,1583.74 c 0,0 -0.067,-0.03 -0.121,-0.05 -11.16,-4.12 -11.555,-5.94 -13.719,-15.97 -0.359,-1.7 2.109,-7.14 4.652,-11.16 l 0.852,-1.35 -0.957,-1.28 c -4.176,-5.52 -8.801,-11.98 -9.262,-13.09 -1.023,-3.39 -0.601,-7.84 0.949,-10.71 0.094,-0.1 0.387,-0.36 1.477,-1.61 l 0.148,-0.18 0.121,-0.21 c 3.68,-6.57 3.868,-7.13 2.969,-8.47 -0.125,-0.18 -2.871,-4.14 -5.687,-6.57 -0.578,-0.55 -2.684,-4.55 -3.383,-11.19 0.129,-0.08 0.293,-0.19 0.523,-0.32 0.414,-0.24 1.024,-0.58 1.543,-1.14 23.617,0.06 67.039,10.19 93.254,25.08 1.27,0.73 2.399,1.77 3.594,2.87 0.543,0.5 1.137,0.97 1.711,1.45 -3.199,45.32 -24.192,63.6 -25.152,64.41 -0.165,0.13 -2.481,1.88 -2.461,1.88 -0.086,0.06 -0.332,0.25 -0.614,0.53 0,0 0,0 -0.164,0.16 -6.293,6.27 -14.801,8.95 -25.316,7.93 -10.985,-1.04 -16.934,-11.8 -19.488,-16.38 -0.422,-0.75 -0.711,-1.28 -0.985,-1.72 l 0.274,-1.98 -2.129,-0.44 c -1.457,-0.28 -2.43,-0.47 -3.219,-0.52 l 0.172,-0.09 0.418,0.12"
         style="fill:#0d2249;fill-opacity:1;fill-rule:evenodd;stroke:none"
         id="path56" /><path
         d="m 1163.26,1124.48 c 15.45,25.73 39.15,37.16 58.51,44.22 l 0.02,0.16 1.44,0.48 2.06,0.7 2.02,0.7 c 6.43,2.17 12.68,4.09 19.09,5.87 31.1,8.63 50.89,19.72 68.25,38.28 14.15,15.12 16.35,27.59 18.09,44.88 l 0.76,7.49 0.76,7.65 0.53,5.35 3.5,-4.08 5.01,-5.83 4.9,-5.72 c 3.69,-4.29 9.6,-7.79 17.55,-10.34 0,0 1.98,-0.65 2.07,-0.67 7.02,-1.96 12.86,-2.47 15.04,-2.6 40.58,-2.36 70.53,30.07 78.13,61.78 7.78,32.81 -2.78,68.92 -29.81,101.67 -5.32,6.47 -10.65,12.48 -15.78,18.29 -24.74,27.96 -46.1,52.1 -41.85,97.44 2.95,31.62 21.79,58.1 49.12,69.15 16.06,6.48 32.71,6.66 46.89,0.51 2.37,-1.02 4.66,-2.25 6.86,-3.59 2.21,-1.39 4.32,-2.95 6.27,-4.61 0.87,-0.74 1.36,-1.16 1.63,-1.57 11.01,-10.17 16.64,-23.03 16.16,-37.25 -0.58,-17.69 -11.29,-36.71 -28.65,-51.19 0.52,-2.92 1.78,-3.8 2.24,-4.07 4.21,-2.42 14.46,-1.14 25.9,6.03 16.17,10.16 32.69,30.99 30.56,59.06 -0.14,2.06 -0.2,3.8 -0.26,5.21 -0.19,4.65 -0.27,7.22 -3.29,16.42 -7.93,24.11 -20.82,35.29 -43.35,48.62 -12.69,7.5 -26.72,8.52 -38.88,8.86 -31.68,0.94 -58.78,-13.59 -85.27,-45.76 -27.62,-33.48 -33.21,-98.2 -12,-138.5 11.29,-21.47 21.71,-32.45 37.47,-49.09 0,0 11.29,-12.01 11.3,-12.03 16.82,-18.2 27.17,-44.02 25.71,-64.22 -0.84,-11.9 -5.55,-21.67 -13.64,-28.25 -31.85,-25.89 -63.22,7.28 -93.54,39.39 -15.71,16.63 -32.01,33.86 -48.19,43.17 -29.19,16.83 -70.26,21.85 -112.68,13.81 -14.2,-2.71 -30.95,-8.44 -49.76,-17.09 -7.55,-5.58 -18.29,-8.93 -23.58,-10.35 l -1.25,-3.16 c -0.36,-0.93 -0.66,-1.65 -0.97,-2.26 l 0.05,-0.03 c -0.01,-0.02 -0.01,-0.03 -0.01,-0.07 -17.7,-56.52 -67.6,-67.76 -89.195,-69.94 -0.504,-0.56 -1.105,-1.01 -1.824,-1.35 -4.836,-12.85 -19.199,-24.09 -23.582,-27.3 -11.387,-8.29 -29.324,-14.03 -48.023,-15.4 l -4.258,-1.04 -0.563,-0.14 -0.554,0.14 c -3.102,0.79 -5.094,0.78 -7.414,0.78 -1,-0.01 -2.043,0.06 -3.036,0.12 -10.07,-17.18 -33.312,-32.5 -63.781,-29 -0.238,0 -0.722,-0.07 -0.734,-0.07 -0.199,-0.02 -0.285,-0.02 -0.442,-0.03 -0.046,0 -0.101,-0.02 -0.14,-0.06 -9.899,-18.3 -23.031,-28.8 -40.598,-32.49 0.203,-0.03 0.406,-0.09 0.617,-0.13 0,0 3.02,-0.61 3.032,-0.61 0.738,-0.15 1.871,-0.44 2.75,-0.76 22.488,-3.79 46.726,-3.88 72.062,-0.26 41.625,5.96 91.402,21.82 135.353,35.83 41.25,13.16 76.87,24.52 94.6,23.53 l 6.31,-0.36 6.45,-0.33 4.51,-0.26 -2.86,-3.51 -4.07,-4.99 -3.97,-4.9 c -21.64,-26.58 -24.02,-58.63 -24.02,-120.43 0,-57.89 -21.9,-103.32 -61.7,-127.892 -25.603,-15.847 -53.201,-24.855 -54.353,-25.234 l -1.613,-0.527 -1.621,-0.52 -1.176,-0.379 -0.965,0.75 -1.371,1.035 -1.137,0.895 -0.074,0.055 -0.125,0.07 c -3.312,2.543 -13.148,5.433 -21.27,7.019 -12.734,-0.968 -21.281,-11.101 -33.085,-25.14 l -2.215,-2.637 c -3.66,-4.332 -10.801,-8.762 -17.723,-13.055 -3.398,-2.093 -6.605,-4.09 -8.801,-5.722 -12.91,-9.586 -9.683,-17.446 -6.843,-24.403 0.531,-1.312 1.023,-21.39 1.378,-22.57 0.977,-3.285 3.387,-5.527 7.571,-7.035 0.476,-0.168 1.008,-0.301 1.519,-0.445 -1.902,4.242 -2.027,25.605 -1.902,30.218 0.434,15.16 6.777,23.578 21.496,28.196 1.191,0.492 8.781,5.765 10.855,8.859 1.997,2.98 4.797,8.918 8.622,12.238 2.168,2.274 15.375,13.242 40.664,2.864 l -4.614,-16.938 -4.566,1.859 c -10.25,4.211 -19.117,-2.839 -19.117,-2.839 l -0.52,-0.539 c -0.351,-0.438 -4.367,-4.75 -4.801,-5.497 -3.265,-5.734 -8.496,-9.3 -15.882,-13.203 -7.789,-4.125 -9.754,-7.086 -9.981,-15.066 -0.156,-6.258 4.297,-28.93 8.367,-31.109 11.946,2.16 21.227,26.8 32.672,34.144 1.594,4.082 4.321,7.219 8.012,9.004 8.691,4.262 19.332,0.293 30.609,-3.898 5.36,-2 13.258,-4.915 17.688,-4.836 15.052,20.226 35.832,36.785 69.222,55.117 12.48,6.871 23.15,11.996 32.57,16.523 16.76,8.043 27.92,13.453 35.49,22.028 l 0.27,3.554 c 0.1,1.056 0.19,1.866 0.29,2.556 l -0.08,0.08 0.09,-0.01 c 0,0.02 0,0.03 0,0.05 l -0.09,0.01 c 2.18,29.08 6.71,89.57 26.49,122.47"
         style="fill:#0d2249;fill-opacity:1;fill-rule:evenodd;stroke:none"
         id="path58" /><g
         id="g60"
         transform="scale(1.00076,0.99924)"><path
           d="M 1526.95,867.878 H 362.116"
           style="fill:none;stroke:#0d2249;stroke-width:13.9467;stroke-linecap:butt;stroke-linejoin:miter;stroke-miterlimit:2.6131;stroke-dasharray:none;stroke-opacity:1"
           id="path62" /></g><path
         d="m 177.227,407.094 v 9.957 c 21.527,2.328 34.933,6.324 40.203,11.98 5.238,5.641 7.863,20.395 7.863,44.258 v 238.625 c 0,19.559 -2.934,32.344 -8.813,38.352 -5.871,6.011 -18.96,9.738 -39.253,11.164 v 10.23 h 291.347 l 1.86,-79.109 h -15.211 c -3.731,25.304 -10.77,41.304 -21.114,48.027 -10.308,6.735 -30.695,10.086 -61.136,10.086 h -74.77 c -7.316,0 -11.98,-1.258 -14.031,-3.758 -2.047,-2.511 -3.059,-7.445 -3.059,-14.797 V 609.137 h 79.035 c 23.332,0 38.204,3.515 44.598,10.5 6.399,7.015 11.563,21.164 15.5,42.519 h 12.82 V 534.621 h -12.82 c -4.109,21.344 -9.363,35.457 -15.766,42.371 -6.406,6.914 -21.183,10.356 -44.332,10.356 h -79.035 v -120.52 c 0,-20.273 3.059,-33.238 9.188,-38.887 6.156,-5.66 19.547,-9.273 40.207,-10.89 v -9.957 H 177.227"
         style="fill:#0d2249;fill-opacity:1;fill-rule:evenodd;stroke:none"
         id="path64" /><g
         id="g66"
         transform="scale(1.00076,0.99924)"><path
           d="m 177.092,407.403 v 9.965 c 21.511,2.33 34.907,6.329 40.173,11.989 5.234,5.645 7.857,20.41 7.857,44.292 v 238.806 c 0,19.574 -2.931,32.369 -8.806,38.381 -5.866,6.016 -18.946,9.746 -39.224,11.173 v 10.238 h 291.127 l 1.858,-79.17 h -15.2 c -3.728,25.324 -10.761,41.336 -21.097,48.064 -10.301,6.74 -30.672,10.094 -61.09,10.094 h -74.713 c -7.311,0 -11.972,-1.259 -14.021,-3.761 -2.045,-2.514 -3.056,-7.451 -3.056,-14.808 V 609.6 h 78.975 c 23.314,0 38.174,3.518 44.564,10.508 6.393,7.021 11.554,21.18 15.488,42.552 h 12.811 V 535.028 h -12.811 c -4.106,21.36 -9.356,35.484 -15.754,42.403 -6.401,6.919 -21.167,10.363 -44.298,10.363 H 280.9 V 467.183 c 0,-20.289 3.056,-33.264 9.18,-38.916 6.152,-5.665 19.532,-9.281 40.177,-10.899 v -9.965 z"
           style="fill:none;stroke:#0d2249;stroke-width:2.53235;stroke-linecap:butt;stroke-linejoin:miter;stroke-miterlimit:2.6131;stroke-dasharray:none;stroke-opacity:1"
           id="path68" /></g><path
         d="m 666.914,731.547 c 0,8.254 1.711,13.496 5.141,15.742 3.402,2.238 12.746,3.375 28.008,3.375 22.621,0 40.773,-3.141 54.464,-9.441 25.598,-11.641 38.414,-33.453 38.414,-65.36 0,-33.172 -14.304,-55.781 -42.878,-67.789 -16.676,-6.836 -44.391,-10.957 -83.149,-12.379 z m 48.668,-324.445 v 9.949 c -20.344,1.797 -33.551,5.426 -39.594,10.89 -6.043,5.461 -9.074,18.43 -9.074,38.879 v 108.426 l 29.996,1.352 128.387,-169.496 h 86.836 v 9.949 c -10.735,1.082 -19.492,3.578 -26.317,7.547 -6.851,3.925 -13.687,10.211 -20.519,18.82 L 754.258,583.043 c 30.004,4.66 53.715,14.348 71.164,29.047 17.445,14.715 26.183,35.785 26.183,63.238 0,40.899 -19.656,68.961 -58.921,84.215 -20.707,8.066 -46.582,12.094 -77.618,12.094 H 565.871 v -10.223 c 19.481,-1.598 32.07,-5.434 37.766,-11.434 5.703,-6.003 8.562,-18.703 8.562,-38.066 V 473.27 c 0,-22.946 -2.57,-37.567 -7.652,-43.84 -5.086,-6.282 -17.981,-10.407 -38.676,-12.379 v -9.949 h 149.711"
         style="fill:#0d2249;fill-opacity:1;fill-rule:evenodd;stroke:none"
         id="path70" /><g
         id="g72"
         transform="scale(1.00076,0.99924)"><path
           d="m 666.408,732.103 c 0,8.26 1.709,13.506 5.137,15.754 3.399,2.24 12.736,3.378 27.986,3.378 22.604,0 40.743,-3.143 54.424,-9.449 25.578,-11.649 38.385,-33.478 38.385,-65.409 0,-33.197 -14.294,-55.824 -42.847,-67.84 -16.663,-6.842 -44.357,-10.966 -83.085,-12.389 z m 48.631,-324.692 v 9.957 c -20.328,1.798 -33.525,5.43 -39.564,10.899 -6.038,5.465 -9.067,18.443 -9.067,38.908 v 108.508 l 29.973,1.353 128.289,-169.625 h 86.77 v 9.957 c -10.726,1.083 -19.477,3.581 -26.296,7.552 -6.846,3.929 -13.677,10.219 -20.504,18.835 L 753.685,583.486 c 29.981,4.664 53.674,14.359 71.11,29.069 17.432,14.726 26.164,35.813 26.164,63.287 0,40.929 -19.641,69.013 -58.877,84.278 -20.691,8.073 -46.547,12.103 -77.558,12.103 H 565.442 v -10.23 c 19.465,-1.599 32.046,-5.438 37.737,-11.442 5.698,-6.009 8.556,-18.718 8.556,-38.096 V 473.629 c 0,-22.962 -2.569,-37.595 -7.647,-43.873 -5.082,-6.286 -17.967,-10.414 -38.646,-12.388 v -9.957 z"
           style="fill:none;stroke:#0d2249;stroke-width:2.53235;stroke-linecap:butt;stroke-linejoin:miter;stroke-miterlimit:2.6131;stroke-dasharray:none;stroke-opacity:1"
           id="path74" /></g><path
         d="m 997.5,407.09 v 9.961 c 19.81,2.16 32.65,5.801 38.54,10.89 5.87,5.129 8.81,18.082 8.81,38.887 v 245.11 c 0,19.539 -2.9,32.316 -8.69,38.332 -5.79,6.007 -18.68,9.726 -38.66,11.164 v 10.226 h 286.24 l 1.85,-79.105 h -13.69 c -4.57,24.394 -11.41,40.172 -20.51,47.363 -9.14,7.168 -29.48,10.758 -61.05,10.758 h -73.14 c -7.88,0 -12.75,-1.305 -14.59,-3.895 -1.85,-2.625 -2.77,-7.504 -2.77,-14.679 v -122.95 h 82.87 c 22.95,0 37.62,3.5 43.95,10.485 6.31,7.004 11.38,21.172 15.25,42.527 h 12.62 V 534.633 h -12.62 c -4.05,21.34 -9.21,35.453 -15.53,42.371 -6.31,6.902 -20.87,10.359 -43.67,10.359 h -82.87 V 450.949 c 0,-10.945 3.36,-17.394 10.12,-19.371 6.75,-1.969 26.98,-2.961 60.66,-2.961 36.46,0 63.39,4.078 80.77,12.246 17.36,8.149 32.95,27.938 46.82,59.336 h 15 L 1288.75,407.09 H 997.5"
         style="fill:#0d2249;fill-opacity:1;fill-rule:evenodd;stroke:none"
         id="path76" /><g
         id="g78"
         transform="scale(1.00076,0.99924)"><path
           d="m 996.743,407.399 v 9.969 c 19.797,2.162 32.627,5.805 38.507,10.899 5.87,5.133 8.81,18.096 8.81,38.916 v 245.296 c 0,19.554 -2.9,32.341 -8.68,38.361 -5.79,6.012 -18.67,9.734 -38.637,11.172 v 10.235 h 286.027 l 1.84,-79.166 h -13.68 c -4.56,24.413 -11.39,40.203 -20.49,47.399 -9.13,7.174 -29.46,10.766 -61,10.766 h -73.09 c -7.88,0 -12.74,-1.305 -14.58,-3.897 -1.85,-2.627 -2.77,-7.51 -2.77,-14.691 V 609.615 h 82.82 c 22.93,0 37.59,3.503 43.91,10.493 6.3,7.009 11.37,21.188 15.24,42.559 h 12.61 V 535.039 h -12.61 c -4.05,21.356 -9.21,35.48 -15.53,42.404 -6.29,6.907 -20.84,10.367 -43.62,10.367 H 1099 V 451.292 c 0,-10.954 3.37,-17.408 10.12,-19.386 6.75,-1.97 26.95,-2.963 60.61,-2.963 36.43,0 63.34,4.081 80.71,12.255 17.34,8.155 32.93,27.959 46.78,59.381 h 14.99 l -24.44,-93.18 z"
           style="fill:none;stroke:#0d2249;stroke-width:2.53235;stroke-linecap:butt;stroke-linejoin:miter;stroke-miterlimit:2.6131;stroke-dasharray:none;stroke-opacity:1"
           id="path80" /></g><path
         d="m 1376.35,771.66 h 150.76 v -10.226 c -12.63,0.359 -22.1,-0.633 -28.42,-2.957 -6.31,-2.329 -9.47,-7.36 -9.47,-15.067 0,-2.347 0.53,-5.254 1.57,-8.742 1.05,-3.496 3.41,-8.133 7.11,-13.863 l 79.73,-122.414 77.33,124.3 c 3.17,5.2 5.22,9.497 6.19,12.911 0.98,3.414 1.45,5.918 1.45,7.543 0,7.886 -4.12,13.082 -12.37,15.609 -4.9,1.598 -13.33,2.504 -25.25,2.68 l 7.48,10.226 h 117.88 l -7.48,-10.226 c -10.9,-0.532 -20.63,-3.852 -29.22,-9.95 -13.34,-9.511 -28.34,-27.171 -44.99,-53.004 l -79.72,-124.312 v -107.34 c 0,-21.359 3.37,-34.668 10.12,-39.957 6.77,-5.285 21.9,-8.57 45.4,-9.82 v -9.961 h -164.71 v 9.961 c 24.39,1.429 39.51,5.148 45.4,11.164 5.86,6.004 8.81,21.031 8.81,45.062 v 95.774 l -70.52,105.746 c -24.39,36.41 -41.48,59.789 -51.29,70.086 -9.84,10.305 -21.76,15.844 -35.79,16.551 v 10.226"
         style="fill:#0d2249;fill-opacity:1;fill-rule:evenodd;stroke:none"
         id="path82" /><g
         id="g84"
         transform="scale(1.00076,0.99924)"><path
           d="m 1375.31,772.247 h 150.64 v -10.235 c -12.62,0.36 -22.08,-0.633 -28.4,-2.959 -6.31,-2.33 -9.46,-7.365 -9.46,-15.078 0,-2.349 0.53,-5.258 1.57,-8.749 1.05,-3.498 3.41,-8.139 7.11,-13.873 l 79.66,-122.507 77.28,124.395 c 3.16,5.203 5.21,9.503 6.18,12.92 0.97,3.416 1.45,5.922 1.45,7.548 0,7.893 -4.12,13.092 -12.36,15.622 -4.9,1.599 -13.32,2.506 -25.24,2.681 l 7.49,10.235 h 117.78 l -7.48,-10.235 c -10.88,-0.531 -20.61,-3.854 -29.19,-9.956 -13.33,-9.519 -28.31,-27.193 -44.95,-53.045 L 1587.73,574.604 V 467.183 c 0,-21.376 3.36,-34.694 10.11,-39.987 6.76,-5.29 21.87,-8.577 45.36,-9.828 v -9.969 h -164.58 v 9.969 c 24.36,1.431 39.48,5.152 45.36,11.172 5.86,6.009 8.8,21.048 8.8,45.097 v 95.846 l -70.46,105.827 c -24.37,36.438 -41.45,59.834 -51.26,70.139 -9.82,10.313 -21.73,15.856 -35.75,16.563 z"
           style="fill:none;stroke:#0d2249;stroke-width:2.53235;stroke-linecap:butt;stroke-linejoin:miter;stroke-miterlimit:2.6131;stroke-dasharray:none;stroke-opacity:1"
           id="path86" /></g><path
         d="m 353.613,316.059 c 5.711,-1.012 11.075,-1.672 16.778,-1.672 5.703,0 11.07,0.66 16.761,1.672 17.102,-67.977 31.184,-113.5 58.008,-198.219 h 0.672 c 12.082,36.84 55.676,163.73 64.051,198.219 3.703,-1.012 7.379,-1.672 11.07,-1.672 3.688,0 7.367,0.66 11.067,1.672 10.054,-36.164 52.304,-163.387 64.046,-198.219 h 0.668 c 10.055,29.797 53.649,169.09 60.028,198.219 4.027,-1.012 7.707,-1.672 11.73,-1.672 4.028,0 7.711,0.66 11.742,1.672 C 667.156,284.59 611.82,120.523 600.09,85.0391 c -3.695,1 -7.715,1.6718 -11.391,1.6718 -3.695,0 -7.726,-0.6718 -11.414,-1.6718 -19.449,62.5979 -39.566,125.5549 -61.687,191.8479 h -0.68 C 504.18,246.082 470.316,147.637 449.531,85.0391 c -4.023,1 -7.715,1.6718 -11.738,1.6718 -4.027,0 -7.719,-0.6718 -11.738,-1.6718 -11.067,36.4919 -59.356,195.5239 -72.442,231.0199"
         style="fill:#0d2249;fill-opacity:1;fill-rule:evenodd;stroke:none"
         id="path88" /><g
         id="g90"
         transform="scale(1.00076,0.99924)"><path
           d="m 353.345,316.299 c 5.706,-1.013 11.066,-1.673 16.764,-1.673 5.699,0 11.062,0.66 16.749,1.673 17.089,-68.028 31.16,-113.586 57.964,-198.37 h 0.672 c 12.072,36.868 55.633,163.855 64.002,198.37 3.7,-1.013 7.373,-1.673 11.062,-1.673 3.684,0 7.361,0.66 11.058,1.673 10.047,-36.192 52.265,-163.511 63.998,-198.37 h 0.667 c 10.047,29.82 53.608,169.219 59.982,198.37 4.025,-1.013 7.701,-1.673 11.722,-1.673 4.024,0 7.705,0.66 11.733,1.673 -13.068,-31.493 -68.362,-195.684 -80.084,-231.1953 -3.692,1.0008 -7.709,1.6732 -11.382,1.6732 -3.692,0 -7.72,-0.6724 -11.405,-1.6732 -19.434,62.6453 -39.536,125.6503 -61.641,191.9933 h -0.679 C 503.797,246.269 469.959,147.749 449.19,85.1037 c -4.02,1.0008 -7.709,1.6732 -11.729,1.6732 -4.025,0 -7.713,-0.6724 -11.73,-1.6732 -11.058,36.5203 -59.31,195.6723 -72.386,231.1953 z"
           style="fill:none;stroke:#0d2249;stroke-width:2.50544;stroke-linecap:butt;stroke-linejoin:miter;stroke-miterlimit:2.6131;stroke-dasharray:none;stroke-opacity:1"
           id="path92" /></g><path
         d="m 789.672,229.344 c 0,28.785 -1.336,57.926 -2.684,86.715 5.7,-1.012 11.063,-1.672 16.434,-1.672 5.371,0 10.726,0.66 16.43,1.672 -1.336,-28.789 -2.684,-57.93 -2.684,-86.715 v -57.59 c 0,-28.793 1.348,-57.922 2.684,-86.7149 -5.704,1 -11.059,1.6718 -16.43,1.6718 -5.371,0 -10.734,-0.6718 -16.434,-1.6718 1.348,28.7929 2.684,57.9219 2.684,86.7149 v 57.59"
         style="fill:#0d2249;fill-opacity:1;fill-rule:evenodd;stroke:none"
         id="path94" /><g
         id="g96"
         transform="scale(1.00076,0.99924)"><path
           d="m 789.072,229.518 c 0,28.807 -1.334,57.97 -2.681,86.781 5.695,-1.013 11.054,-1.673 16.421,-1.673 5.367,0 10.718,0.66 16.417,1.673 -1.335,-28.811 -2.681,-57.974 -2.681,-86.781 v -57.634 c 0,-28.814 1.346,-57.965 2.681,-86.7803 -5.699,1.0008 -11.05,1.6732 -16.417,1.6732 -5.367,0 -10.726,-0.6724 -16.421,-1.6732 1.347,28.8153 2.681,57.9663 2.681,86.7803 z"
           style="fill:none;stroke:#0d2249;stroke-width:2.50544;stroke-linecap:butt;stroke-linejoin:miter;stroke-miterlimit:2.6131;stroke-dasharray:none;stroke-opacity:1"
           id="path98" /></g><path
         d="m 962.211,229.344 c 0,28.785 -1.352,57.926 -2.688,86.715 5.688,-1.012 11.063,-1.672 16.438,-1.672 5.344,0 10.723,0.66 16.414,1.672 -1.34,-28.789 -2.676,-57.93 -2.676,-86.715 0,-56.254 0.66,-95.762 1,-128.582 31.531,0 59.021,0 92.551,4.359 -1.01,-3.359 -1.68,-6.7069 -1.68,-10.0429 0,-3.3398 0.67,-6.7031 1.68,-10.039 -20.45,1 -41.24,1.6718 -61.7,1.6718 -20.79,0 -41.237,-0.6718 -62.027,-1.6718 1.336,28.7929 2.688,57.9219 2.688,86.7149 v 57.59"
         style="fill:#0d2249;fill-opacity:1;fill-rule:evenodd;stroke:none"
         id="path100" /><g
         id="g102"
         transform="scale(1.00076,0.99924)"><path
           d="m 961.481,229.518 c 0,28.807 -1.351,57.97 -2.686,86.781 5.683,-1.013 11.054,-1.673 16.425,-1.673 5.34,0 10.715,0.66 16.402,1.673 -1.339,-28.811 -2.674,-57.974 -2.674,-86.781 0,-56.297 0.66,-95.834 0.999,-128.68 31.503,0 58.973,0 92.483,4.363 -1.01,-3.362 -1.68,-6.7121 -1.68,-10.0506 0,-3.3424 0.67,-6.7082 1.68,-10.0467 -20.44,1.0008 -41.21,1.6732 -61.66,1.6732 -20.77,0 -41.202,-0.6724 -61.975,-1.6732 1.335,28.8153 2.686,57.9663 2.686,86.7803 z"
           style="fill:none;stroke:#0d2249;stroke-width:2.50544;stroke-linecap:butt;stroke-linejoin:miter;stroke-miterlimit:2.6131;stroke-dasharray:none;stroke-opacity:1"
           id="path104" /></g><path
         d="m 1183.63,229.344 c 0,28.785 -1.34,57.926 -2.67,86.715 5.68,-1.012 11.06,-1.672 16.43,-1.672 5.36,0 10.72,0.66 16.42,1.672 -1.33,-28.789 -2.68,-57.93 -2.68,-86.715 0,-56.254 0.66,-95.762 1.01,-128.582 31.51,0 59.02,0 92.54,4.359 -1.01,-3.359 -1.67,-6.7069 -1.67,-10.0429 0,-3.3398 0.66,-6.7031 1.67,-10.039 -20.45,1 -41.24,1.6718 -61.68,1.6718 -20.81,0 -41.26,-0.6718 -62.04,-1.6718 1.33,28.7929 2.67,57.9219 2.67,86.7149 v 57.59"
         style="fill:#0d2249;fill-opacity:1;fill-rule:evenodd;stroke:none"
         id="path106" /><g
         id="g108"
         transform="scale(1.00076,0.99924)"><path
           d="m 1182.73,229.518 c 0,28.807 -1.33,57.97 -2.67,86.781 5.68,-1.013 11.05,-1.673 16.42,-1.673 5.36,0 10.71,0.66 16.41,1.673 -1.33,-28.811 -2.68,-57.974 -2.68,-86.781 0,-56.297 0.66,-95.834 1.01,-128.68 31.49,0 58.98,0 92.47,4.363 -1.01,-3.362 -1.67,-6.7121 -1.67,-10.0506 0,-3.3424 0.66,-6.7082 1.67,-10.0467 -20.43,1.0008 -41.21,1.6732 -61.64,1.6732 -20.79,0 -41.22,-0.6724 -61.99,-1.6732 1.34,28.8153 2.67,57.9663 2.67,86.7803 z"
           style="fill:none;stroke:#0d2249;stroke-width:2.50544;stroke-linecap:butt;stroke-linejoin:miter;stroke-miterlimit:2.6131;stroke-dasharray:none;stroke-opacity:1"
           id="path110" /></g><path
         d="m 1392.58,229.68 c 0,28.785 -1.34,57.914 -2.68,86.379 20.11,-1.012 39.89,-1.672 60.03,-1.672 20.1,0 39.89,0.66 59.68,1.672 -0.67,-3.348 -1.01,-6.7 -1.01,-10.043 0,-3.344 0.34,-6.703 1.01,-10.047 -28.16,2 -44.61,4.351 -88.2,4.351 -0.32,-14.402 -1.33,-26.113 -1.33,-42.527 0,-17.398 0.33,-35.813 0.33,-44.195 39.57,0 61.7,1.687 81.49,3.359 -0.67,-3.359 -1.01,-7.039 -1.01,-10.387 0,-3.347 0.34,-6.703 1.01,-10.035 -23.15,2.336 -65.39,3.016 -81.49,3.016 -0.33,-8.047 -0.33,-16.422 -0.33,-48.567 0,-25.437 0.33,-41.851 0.67,-50.222 29.85,0 69.41,0.34 90.55,4.359 -0.69,-3.023 -1.03,-7.3671 -1.03,-10.3749 0,-3.0078 0.34,-6.707 1.03,-9.707 -19.8,1 -39.92,1.6718 -60.37,1.6718 -20.46,0 -40.57,-0.6718 -61.03,-1.6718 1.34,29.1249 2.68,58.2499 2.68,87.0389 v 57.602"
         style="fill:#0d2249;fill-opacity:1;fill-rule:evenodd;stroke:none"
         id="path112" /><g
         id="g114"
         transform="scale(1.00076,0.99924)"><path
           d="m 1391.52,229.854 c 0,28.807 -1.34,57.958 -2.68,86.445 20.1,-1.013 39.87,-1.673 59.99,-1.673 20.09,0 39.86,0.66 59.63,1.673 -0.67,-3.35 -1,-6.704 -1,-10.051 0,-3.346 0.33,-6.708 1,-10.054 -28.14,2.001 -44.57,4.355 -88.12,4.355 -0.33,-14.414 -1.34,-26.134 -1.34,-42.56 0,-17.412 0.34,-35.84 0.34,-44.229 39.53,0 61.65,1.689 81.42,3.362 -0.67,-3.362 -1,-7.044 -1,-10.395 0,-3.35 0.33,-6.708 1,-10.042 -23.13,2.337 -65.34,3.017 -81.42,3.017 -0.34,-8.053 -0.34,-16.434 -0.34,-48.603 0,-25.457 0.34,-41.883 0.67,-50.261 29.83,0 69.36,0.34 90.48,4.363 -0.69,-3.026 -1.02,-7.3728 -1.02,-10.3829 0,-3.0101 0.33,-6.7121 1.02,-9.7144 -19.78,1.0008 -39.89,1.6732 -60.32,1.6732 -20.44,0 -40.54,-0.6724 -60.99,-1.6732 1.34,29.1473 2.68,58.2943 2.68,87.1053 z"
           style="fill:none;stroke:#0d2249;stroke-width:2.50544;stroke-linecap:butt;stroke-linejoin:miter;stroke-miterlimit:2.6131;stroke-dasharray:none;stroke-opacity:1"
           id="path116" /></g></g></g></svg>
